<?xml version="1.0" encoding="utf-8"?>
<!-- Generator: Adobe Illustrator 26.0.3, SVG Export Plug-In . SVG Version: 6.00 Build 0)  -->
<svg version="1.1" id="Layer_1" xmlns="http://www.w3.org/2000/svg" xmlns:xlink="http://www.w3.org/1999/xlink" x="0px" y="0px"
	 viewBox="0 0 1448.3 158" style="enable-background:new 0 0 1448.3 158;" xml:space="preserve">
<style type="text/css">
	.st0{fill:none;stroke:#666666;}
</style>
<g>
	<rect x="11" y="8.7" class="st0" width="25.8" height="142.4"/>
	<path class="st0" d="M158.8,84c-4.5-3.1-10-5.8-16.5-8.1c-6.5-2.3-13.8-4.3-22.1-6c-7.2-1.7-13.1-3.5-17.7-5.2
		c-4.6-1.7-8-3.9-10.2-6.4c-2.2-2.5-3.3-5.7-3.3-9.6c0-6.7,2.7-11.9,8-15.6c5.3-3.7,12.6-5.6,21.8-5.6c7.6,0,14.9,1.2,21.8,3.7
		c6.9,2.5,13.6,6.3,20,11.5l8.8-18.8c-3.9-3.6-8.5-6.6-13.8-9.1c-5.3-2.5-11.2-4.4-17.5-5.7c-6.3-1.3-12.8-2-19.5-2
		c-11.1,0-20.7,1.8-28.9,5.5c-8.2,3.7-14.6,8.8-19.1,15.3c-4.5,6.5-6.8,14-6.8,22.4c0,6.1,1.1,11.4,3.3,15.9
		c2.2,4.5,5.4,8.3,9.7,11.5c4.3,3.2,9.6,6,16,8.3c6.4,2.3,13.8,4.3,22.2,5.9c7.1,1.6,13,3.3,17.8,5c4.8,1.7,8.4,3.8,10.8,6.3
		c2.4,2.5,3.6,5.6,3.6,9.3c0,6.3-2.7,11.1-8.1,14.6c-5.4,3.5-13,5.2-22.9,5.2c-8.9,0-17.1-1.2-24.6-3.6c-7.5-2.4-14.8-6.3-22-11.6
		L61,135.9c4.4,3.6,9.5,6.7,15.3,9.2c5.8,2.5,12,4.4,18.7,5.7c6.7,1.3,13.7,1.9,21,1.9c11.7,0,21.8-1.7,30.3-5.1
		c8.5-3.4,15-8.3,19.5-14.6c4.5-6.3,6.8-13.8,6.8-22.3c0-6-1.2-11.2-3.5-15.5C166.8,90.9,163.3,87.2,158.8,84z"/>
	<path class="st0" d="M296.2,15.9C286.1,10.1,274,7.1,260,7.1c-13.9,0-25.9,2.9-36,8.8c-10.1,5.9-17.9,14.2-23.4,25.1
		c-5.5,10.9-8.2,23.8-8.2,38.9c0,14.9,2.7,27.9,8.2,38.8c5.5,10.9,13.3,19.3,23.4,25.2c10.1,5.9,22.1,8.8,36,8.8
		c14,0,26-2.9,36.1-8.8c10.1-5.9,17.9-14.3,23.4-25.2c5.5-10.9,8.3-23.9,8.3-39c0-14.9-2.7-27.8-8.2-38.7
		C314.1,30.2,306.3,21.8,296.2,15.9z M290.8,118.8c-7.5,9-17.7,13.5-30.8,13.5c-12.9,0-23.1-4.5-30.6-13.5c-7.5-9-11.2-22-11.2-39.1
		c0-17.1,3.7-30,11.2-38.9c7.5-8.9,17.7-13.3,30.6-13.3c13.1,0,23.3,4.4,30.8,13.3c7.5,8.9,11.2,21.8,11.2,38.9
		C302,96.8,298.3,109.8,290.8,118.8z"/>
	<path class="st0" d="M449,7.1c-9.2,0-17.4,2-24.6,6c-7.2,4-12.9,9.6-17,16.7c-4.1,7.1-6.2,15.3-6.2,24.5c0,8.9,1.9,16.8,5.6,23.7
		c3.7,6.9,8.9,12.3,15.5,16.2c6.6,3.9,14.1,5.9,22.5,5.9c6.3,0,12-1.2,17.3-3.5c5.3-2.3,9.7-5.6,13.3-9.8c1.7-2,3.2-4.2,4.4-6.6
		c-0.3,16.4-3.1,29.1-8.6,38c-5.7,9.4-14,14.1-24.8,14.1c-5.6,0-11.4-1.2-17.4-3.5c-6-2.3-12.3-6.1-19-11.3l-8.8,18.8
		c6,5.3,13,9.4,21.1,12.2c8.1,2.8,16.4,4.2,24.9,4.2c12.1,0,22.5-3,31.2-8.9c8.7-5.9,15.3-14.5,19.9-25.8
		c4.6-11.3,6.9-24.8,6.9-40.7c0-22.7-4.9-40-14.6-52.1C480.9,13.2,467,7.1,449,7.1z M472.5,67c-2.1,3.9-5,7-8.9,9.2
		c-3.9,2.2-8.3,3.3-13.2,3.3c-7.5,0-13.4-2.4-17.9-7.1c-4.5-4.7-6.7-11-6.7-18.9c0-7.9,2.2-14.2,6.7-18.9c4.5-4.7,10.4-7.1,17.9-7.1
		c4.9,0,9.3,1.1,13.2,3.3c3.9,2.2,6.8,5.2,8.9,9.1c2.1,3.9,3.1,8.4,3.1,13.6C475.6,58.6,474.6,63.1,472.5,67z"/>
	<path class="st0" d="M573.6,7.1c-16.9,0-29.8,6.2-38.7,18.6c-8.9,12.4-13.3,30.5-13.3,54.2c0,23.7,4.5,41.8,13.4,54.2
		c8.9,12.4,21.8,18.6,38.6,18.6s29.7-6.2,38.6-18.6c8.9-12.4,13.4-30.5,13.4-54.4c0-23.6-4.4-41.6-13.3-54
		C603.4,13.3,590.5,7.1,573.6,7.1z M593.8,120c-4.3,8.5-11,12.7-20.2,12.7s-15.9-4.2-20.2-12.7c-4.3-8.5-6.4-21.9-6.4-40.3
		c0-18.1,2.1-31.4,6.4-39.7c4.3-8.3,11-12.5,20.2-12.5s15.9,4.1,20.2,12.4c4.3,8.3,6.4,21.5,6.4,39.8
		C600.2,98.1,598.1,111.6,593.8,120z"/>
	<path class="st0" d="M693.6,7.1c-16.9,0-29.8,6.2-38.7,18.6c-8.9,12.4-13.3,30.5-13.3,54.2c0,23.7,4.5,41.8,13.4,54.2
		c8.9,12.4,21.8,18.6,38.6,18.6s29.7-6.2,38.6-18.6c8.9-12.4,13.4-30.5,13.4-54.4c0-23.6-4.4-41.6-13.3-54
		C723.4,13.3,710.5,7.1,693.6,7.1z M713.8,120c-4.3,8.5-11,12.7-20.2,12.7s-15.9-4.2-20.2-12.7c-4.3-8.5-6.4-21.9-6.4-40.3
		c0-18.1,2.1-31.4,6.4-39.7c4.3-8.3,11-12.5,20.2-12.5s15.9,4.1,20.2,12.4c4.3,8.3,6.4,21.5,6.4,39.8
		C720.2,98.1,718.1,111.6,713.8,120z"/>
	<polygon class="st0" points="832.8,8.7 817.8,8.7 778.2,32.7 778.2,55.7 807,38.4 807,130.3 776,130.3 776,151.1 864,151.1 
		864,130.3 832.8,130.3 	"/>
	<rect x="887.4" y="87.3" class="st0" width="60.2" height="19.8"/>
	<path class="st0" d="M1042.8,92.9c8.3-8.9,14.1-17,17.6-24.1c3.5-7.1,5.2-14.8,5.2-23.1c0-8-1.9-14.9-5.6-20.7
		c-3.7-5.8-9.1-10.2-16-13.3c-6.9-3.1-15.1-4.6-24.4-4.6c-9.1,0-18,1.5-26.8,4.4c-8.8,2.9-16.1,6.9-21.8,12l8.8,18.8
		c6.4-4.9,12.8-8.6,19.3-11.1c6.5-2.5,12.9-3.7,19.3-3.7c7.1,0,12.5,1.7,16.2,5c3.7,3.3,5.6,8.3,5.6,14.8c0,5.1-1.3,10.2-4,15.4
		c-2.7,5.2-6.8,10.9-12.4,17.2l-48.2,52.2v19h95.4v-20.8h-63.5L1042.8,92.9z"/>
	<path class="st0" d="M1141.2,7.1c-16.9,0-29.8,6.2-38.7,18.6c-8.9,12.4-13.3,30.5-13.3,54.2c0,23.7,4.5,41.8,13.4,54.2
		c8.9,12.4,21.8,18.6,38.6,18.6s29.7-6.2,38.6-18.6c8.9-12.4,13.4-30.5,13.4-54.4c0-23.6-4.4-41.6-13.3-54
		C1171,13.3,1158.1,7.1,1141.2,7.1z M1161.4,120c-4.3,8.5-11,12.7-20.2,12.7s-15.9-4.2-20.2-12.7c-4.3-8.5-6.4-21.9-6.4-40.3
		c0-18.1,2.1-31.4,6.4-39.7c4.3-8.3,11-12.5,20.2-12.5s15.9,4.1,20.2,12.4c4.3,8.3,6.4,21.5,6.4,39.8
		C1167.8,98.1,1165.7,111.6,1161.4,120z"/>
	<polygon class="st0" points="1280.4,8.7 1265.4,8.7 1225.8,32.7 1225.8,55.7 1254.6,38.4 1254.6,130.3 1223.6,130.3 1223.6,151.1 
		1311.6,151.1 1311.6,130.3 1280.4,130.3 	"/>
	<path class="st0" d="M1428.1,81.7c-3.8-6.8-9.1-12.1-15.8-16c-6.7-3.9-14.6-5.8-23.5-5.8c-7.1,0-13.4,1.3-19,3.8
		c-2.3,1.1-4.5,2.3-6.6,3.8V28.9h64V8.7H1338v83.8h15.4c4-4,8.5-7,13.4-9.1c4.9-2.1,10.1-3.1,15.6-3.1c5.5,0,10.2,1.1,14.2,3.2
		c4,2.1,7.1,5.1,9.3,9c2.2,3.9,3.3,8.5,3.3,13.8c0,8.3-2.4,14.6-7.2,19.1c-4.8,4.5-11.6,6.7-20.4,6.7c-6.8,0-13.5-1.3-20.1-3.8
		c-6.6-2.5-13.1-6.2-19.5-11l-8.6,18.8c5.6,5.1,12.8,9.1,21.5,12c8.7,2.9,17.5,4.4,26.3,4.4c10.8,0,20.1-1.9,27.9-5.8
		c7.8-3.9,13.9-9.4,18.2-16.5c4.3-7.1,6.5-15.4,6.5-24.7C1433.8,96.5,1431.9,88.5,1428.1,81.7z"/>
</g>
</svg>
