<?xml version="1.0" encoding="utf-8"?>
<!-- Generator: Adobe Illustrator 26.0.3, SVG Export Plug-In . SVG Version: 6.00 Build 0)  -->
<svg version="1.1" id="Layer_1" xmlns="http://www.w3.org/2000/svg" xmlns:xlink="http://www.w3.org/1999/xlink" x="0px" y="0px"
	 viewBox="0 0 975.3 158" style="enable-background:new 0 0 975.3 158;" xml:space="preserve">
<style type="text/css">
	.st0{fill:none;stroke:#666666;}
</style>
<g>
	<polygon class="st0" points="108.3,107.4 31.7,7.8 12.5,7.8 12.5,150.2 36.7,150.2 36.7,50.8 113.1,150.2 132.5,150.2 132.5,7.8 
		108.3,7.8 	"/>
	<path class="st0" d="M256.1,94c0,12.1-2.9,21.4-8.7,27.8c-5.8,6.4-14.2,9.6-25.1,9.6c-11.3,0-19.9-3.2-25.7-9.5
		c-5.8-6.3-8.7-15.6-8.7-27.9V7.8h-25.2v84.8c0,19.5,5,34.2,15.1,44.2c10.1,10,24.9,15,44.5,15c19.2,0,33.9-5,44.1-15.1
		c10.2-10.1,15.3-24.8,15.3-44.1V7.8h-25.6V94z"/>
	<polygon class="st0" points="311.5,150.2 406.7,150.2 406.7,130 336.7,130 336.7,88 402.7,88 402.7,67.6 336.7,67.6 336.7,28 
		406.7,28 406.7,7.8 311.5,7.8 	"/>
	<path class="st0" d="M519.5,83.1c-4.5-3.1-10-5.8-16.5-8.1c-6.5-2.3-13.8-4.3-22.1-6c-7.2-1.7-13.1-3.5-17.7-5.2
		c-4.6-1.7-8-3.9-10.2-6.4c-2.2-2.5-3.3-5.7-3.3-9.6c0-6.7,2.7-11.9,8-15.6c5.3-3.7,12.6-5.6,21.8-5.6c7.6,0,14.9,1.2,21.8,3.7
		c6.9,2.5,13.6,6.3,20,11.5l8.8-18.8c-3.9-3.6-8.5-6.6-13.8-9.1c-5.3-2.5-11.2-4.4-17.5-5.7c-6.3-1.3-12.8-2-19.5-2
		c-11.1,0-20.7,1.8-28.9,5.5c-8.2,3.7-14.6,8.8-19.1,15.3c-4.5,6.5-6.8,14-6.8,22.4c0,6.1,1.1,11.4,3.3,15.9
		c2.2,4.5,5.4,8.3,9.7,11.5c4.3,3.2,9.6,6,16,8.3c6.4,2.3,13.8,4.3,22.2,5.9c7.1,1.6,13,3.3,17.8,5c4.8,1.7,8.4,3.8,10.8,6.3
		c2.4,2.5,3.6,5.6,3.6,9.3c0,6.3-2.7,11.1-8.1,14.6c-5.4,3.5-13,5.2-22.9,5.2c-8.9,0-17.1-1.2-24.6-3.6c-7.5-2.4-14.8-6.3-22-11.6
		l-8.6,18.8c4.4,3.6,9.5,6.7,15.3,9.2c5.8,2.5,12,4.4,18.7,5.7c6.7,1.3,13.7,1.9,21,1.9c11.7,0,21.8-1.7,30.3-5.1
		c8.5-3.4,15-8.3,19.5-14.6c4.5-6.3,6.8-13.8,6.8-22.3c0-6-1.2-11.2-3.5-15.5C527.5,90,524.1,86.2,519.5,83.1z"/>
	<polygon class="st0" points="541.5,29 587.9,29 587.9,150.2 613.9,150.2 613.9,29 660.3,29 660.3,7.8 541.5,7.8 	"/>
	<path class="st0" d="M768.5,91c-2.6-2-5.5-3.3-8.7-3.9c6.1-1.9,11.3-4.6,15.7-8.4c8.7-7.4,13-17.4,13-29.9
		c0-13.2-4.2-23.3-12.6-30.4c-8.4-7.1-20.7-10.6-36.8-10.6h-61v142.4h25.4V91h26c5.1,0,9.3,0.8,12.7,2.4s6,4.7,7.9,9.4l18,47.4h27.2
		l-17.6-45.6C775.5,98.5,772.4,93.9,768.5,91z M703.3,71V28h32.2c9.9,0,17.1,1.7,21.6,5.2c4.5,3.5,6.8,8.9,6.8,16.2
		c0,7.2-2.3,12.6-6.8,16.2c-4.5,3.6-11.7,5.4-21.6,5.4H703.3z"/>
	<path class="st0" d="M925.7,150.2h25.6L886.9,7.8h-21l-64.4,142.4h26l14.4-33.4h69.5L925.7,150.2z M850.6,96.8L876.8,36l26.1,60.9
		H850.6z"/>
</g>
</svg>
