<svg width="842" height="311" viewBox="0 0 842 311" fill="none" xmlns="http://www.w3.org/2000/svg">
<path d="M0.0700006 123H-1.93V125H0.0700006V123ZM0.0700006 1.96V-0.0400028H-1.93V1.96H0.0700006ZM19.62 1.96L21.1942 0.726341L20.5936 -0.0400028H19.62V1.96ZM84.9 85.26L85.9961 86.9329L87.817 85.7399L86.4742 84.0263L84.9 85.26ZM79.97 88.49H77.97V92.1914L81.0661 90.1629L79.97 88.49ZM79.97 1.96V-0.0400028H77.97V1.96H79.97ZM104.96 1.96H106.96V-0.0400028H104.96V1.96ZM104.96 123V125H106.96V123H104.96ZM85.24 123L83.6651 124.233L84.2657 125H85.24V123ZM20.3 40.04L19.0721 38.4613L17.4885 39.693L18.7251 41.2728L20.3 40.04ZM24.89 36.47H26.89V32.3807L23.6621 34.8913L24.89 36.47ZM24.89 123V125H26.89V123H24.89ZM2.07 123V1.96H-1.93V123H2.07ZM0.0700006 3.96H19.62V-0.0400028H0.0700006V3.96ZM18.0458 3.19365L83.3258 86.4937L86.4742 84.0263L21.1942 0.726341L18.0458 3.19365ZM83.804 83.5871L78.8739 86.8171L81.0661 90.1629L85.9961 86.9329L83.804 83.5871ZM81.97 88.49V1.96H77.97V88.49H81.97ZM79.97 3.96H104.96V-0.0400028H79.97V3.96ZM102.96 1.96V123H106.96V1.96H102.96ZM104.96 121H85.24V125H104.96V121ZM86.8149 121.767L21.8749 38.8072L18.7251 41.2728L83.6651 124.233L86.8149 121.767ZM21.5279 41.6187L26.1179 38.0487L23.6621 34.8913L19.0721 38.4613L21.5279 41.6187ZM22.89 36.47V123H26.89V36.47H22.89ZM24.89 121H0.0700006V125H24.89V121ZM147.76 111.44L146.346 112.854L146.355 112.863L147.76 111.44ZM134.67 1.96V-0.0400028H132.67V1.96H134.67ZM160.51 1.96H162.51V-0.0400028H160.51V1.96ZM167.14 96.31L165.629 97.6199L167.14 96.31ZM205.73 96.31L207.242 97.6199L205.73 96.31ZM212.36 1.96V-0.0400028H210.36V1.96H212.36ZM238.71 1.96H240.71V-0.0400028H238.71V1.96ZM225.28 111.44L226.676 112.872L226.685 112.863L225.28 111.44ZM186.69 122.53C169.9 122.53 157.508 118.253 149.165 110.017L146.355 112.863C155.692 122.081 169.253 126.53 186.69 126.53V122.53ZM149.174 110.026C140.944 101.795 136.67 89.5762 136.67 73.02H132.67C132.67 90.2371 137.123 103.631 146.346 112.854L149.174 110.026ZM136.67 73.02V1.96H132.67V73.02H136.67ZM134.67 3.96H160.51V-0.0400028H134.67V3.96ZM158.51 1.96V74.21H162.51V1.96H158.51ZM158.51 74.21C158.51 84.1216 160.782 92.0277 165.629 97.6199L168.652 95.0001C164.658 90.3923 162.51 83.5651 162.51 74.21H158.51ZM165.629 97.6199C170.528 103.273 177.669 105.96 186.69 105.96V101.96C178.485 101.96 172.592 99.5467 168.652 95.0001L165.629 97.6199ZM186.69 105.96C195.401 105.96 202.357 103.256 207.242 97.6199L204.219 95.0001C200.263 99.5645 194.526 101.96 186.69 101.96V105.96ZM207.242 97.6199C212.088 92.0277 214.36 84.1216 214.36 74.21H210.36C210.36 83.5651 208.212 90.3923 204.219 95.0001L207.242 97.6199ZM214.36 74.21V1.96H210.36V74.21H214.36ZM212.36 3.96H238.71V-0.0400028H212.36V3.96ZM236.71 1.96V73.02H240.71V1.96H236.71ZM236.71 73.02C236.71 89.4429 232.334 101.665 223.875 110.017L226.685 112.863C236.133 103.535 240.71 90.1437 240.71 73.02H236.71ZM223.884 110.008C215.418 118.26 203.125 122.53 186.69 122.53V126.53C203.802 126.53 217.236 122.073 226.676 112.872L223.884 110.008ZM267.966 123H265.966V125H267.966V123ZM267.966 1.96V-0.0400028H265.966V1.96H267.966ZM351.436 1.96H353.436V-0.0400028H351.436V1.96ZM351.436 22.53V24.53H353.436V22.53H351.436ZM293.976 22.53V20.53H291.976V22.53H293.976ZM293.976 51.09H291.976V53.09H293.976V51.09ZM347.866 51.09H349.866V49.09H347.866V51.09ZM347.866 71.83V73.83H349.866V71.83H347.866ZM293.976 71.83V69.83H291.976V71.83H293.976ZM293.976 102.43H291.976V104.43H293.976V102.43ZM351.436 102.43H353.436V100.43H351.436V102.43ZM351.436 123V125H353.436V123H351.436ZM269.966 123V1.96H265.966V123H269.966ZM267.966 3.96H351.436V-0.0400028H267.966V3.96ZM349.436 1.96V22.53H353.436V1.96H349.436ZM351.436 20.53H293.976V24.53H351.436V20.53ZM291.976 22.53V51.09H295.976V22.53H291.976ZM293.976 53.09H347.866V49.09H293.976V53.09ZM345.866 51.09V71.83H349.866V51.09H345.866ZM347.866 69.83H293.976V73.83H347.866V69.83ZM291.976 71.83V102.43H295.976V71.83H291.976ZM293.976 104.43H351.436V100.43H293.976V104.43ZM349.436 102.43V123H353.436V102.43H349.436ZM351.436 121H267.966V125H351.436V121ZM398.334 123L397.949 124.963L397.971 124.967L397.992 124.971L398.334 123ZM382.014 118.24L381.236 120.083L381.253 120.09L381.271 120.097L382.014 118.24ZM368.754 110.59L366.933 109.761L366.283 111.19L367.516 112.161L368.754 110.59ZM377.424 91.55L378.568 89.9101L376.599 88.5351L375.603 90.7212L377.424 91.55ZM396.124 100.9L396.726 98.9928L396.124 100.9ZM434.204 100.22L433.181 98.5009L433.171 98.5071L433.161 98.5134L434.204 100.22ZM437.944 83.22L439.403 81.8521V81.8521L437.944 83.22ZM429.784 78.46L430.467 76.5804L429.784 78.46ZM414.824 74.38L415.25 72.426L415.236 72.4228L415.221 72.4199L414.824 74.38ZM394.764 68.77L394.04 70.6347L394.764 68.77ZM381.164 61.29L379.883 62.8264L379.896 62.8367L379.908 62.8468L381.164 61.29ZM373.684 51.43L371.834 52.1915L371.838 52.2013L371.842 52.2111L373.684 51.43ZM377.254 18.96L375.62 17.8066L375.615 17.8131L377.254 18.96ZM394.084 5.35999L393.258 3.53826L393.247 3.54323L394.084 5.35999ZM436.244 2.13L435.836 4.08797L435.844 4.0896L436.244 2.13ZM451.544 6.89L450.74 8.72128L451.544 6.89ZM463.274 14.37L465.1 15.1853L465.683 13.8783L464.634 12.9044L463.274 14.37ZM454.774 33.41L453.553 34.994L455.564 36.5448L456.6 34.2253L454.774 33.41ZM437.774 24.06L437.119 25.95L437.774 24.06ZM403.264 25.25L404.373 26.9141L404.389 26.9036L404.404 26.8927L403.264 25.25ZM407.344 48.03L406.591 49.8829L406.625 49.8969L406.66 49.9096L407.344 48.03ZM422.644 52.28L422.199 54.2299L422.217 54.234L422.234 54.2377L422.644 52.28ZM442.364 57.89L443.087 56.0253L442.364 57.89ZM455.964 65.37L454.708 66.9268L454.735 66.9489L454.764 66.97L455.964 65.37ZM463.954 75.06L462.133 75.8876L462.138 75.8983L462.143 75.9089L463.954 75.06ZM460.554 107.36L462.17 108.538L462.175 108.53L462.181 108.522L460.554 107.36ZM443.384 120.11L444.117 121.971L444.129 121.966L444.141 121.961L443.384 120.11ZM416.354 122.53C410.345 122.53 404.453 122.029 398.675 121.029L397.992 124.971C404.001 126.011 410.122 126.53 416.354 126.53V122.53ZM398.718 121.037C393.052 119.926 387.733 118.374 382.756 116.383L381.271 120.097C386.495 122.186 392.055 123.807 397.949 124.963L398.718 121.037ZM382.791 116.398C377.83 114.303 373.57 111.839 369.991 109.019L367.516 112.161C371.417 115.235 375.997 117.871 381.236 120.083L382.791 116.398ZM370.574 111.419L379.244 92.3788L375.603 90.7212L366.933 109.761L370.574 111.419ZM376.279 93.1899C382.438 97.4899 388.853 100.701 395.521 102.807L396.726 98.9928C390.474 97.0187 384.422 93.9968 378.568 89.9101L376.279 93.1899ZM395.521 102.807C402.186 104.912 409.19 105.96 416.524 105.96V101.96C409.577 101.96 402.981 100.968 396.726 98.9928L395.521 102.807ZM416.524 105.96C424.395 105.96 430.715 104.696 435.246 101.927L433.161 98.5134C429.532 100.731 424.066 101.96 416.524 101.96V105.96ZM435.226 101.939C439.95 99.1303 442.494 95.0593 442.494 89.85H438.494C438.494 93.4807 436.844 96.323 433.181 98.5009L435.226 101.939ZM442.494 89.85C442.494 86.7625 441.468 84.0556 439.403 81.8521L436.484 84.5879C437.819 86.0111 438.494 87.7242 438.494 89.85H442.494ZM439.403 81.8521C437.396 79.7122 434.344 77.9901 430.467 76.5804L429.1 80.3396C432.703 81.6499 435.091 83.1011 436.484 84.5879L439.403 81.8521ZM430.467 76.5804C426.609 75.1773 421.525 73.7951 415.25 72.426L414.397 76.334C420.589 77.6849 425.479 79.0227 429.1 80.3396L430.467 76.5804ZM415.221 72.4199C407.477 70.8487 400.906 69.0066 395.487 66.9053L394.04 70.6347C399.728 72.8401 406.53 74.7379 414.426 76.3401L415.221 72.4199ZM395.487 66.9053C390.068 64.8041 385.73 62.4032 382.419 59.7332L379.908 62.8468C383.624 65.8434 388.353 68.4292 394.04 70.6347L395.487 66.9053ZM382.444 59.7536C379.266 57.1053 376.976 54.0705 375.525 50.6489L371.842 52.2111C373.564 56.2695 376.261 59.8081 379.883 62.8264L382.444 59.7536ZM375.533 50.6685C374.063 47.0992 373.304 42.9457 373.304 38.17H369.304C369.304 43.3676 370.131 48.0541 371.834 52.1915L375.533 50.6685ZM373.304 38.17C373.304 31.4263 375.169 25.4261 378.892 20.1069L375.615 17.8131C371.405 23.8273 369.304 30.6337 369.304 38.17H373.304ZM378.887 20.1134C382.743 14.6518 388.063 10.333 394.92 7.17676L393.247 3.54323C385.824 6.96029 379.924 11.7082 375.62 17.8066L378.887 20.1134ZM394.909 7.1817C401.854 4.03453 410.006 2.43 419.414 2.43V-1.57C409.554 -1.57 400.819 0.112133 393.258 3.53829L394.909 7.1817ZM419.414 2.43C425.062 2.43 430.535 2.98368 435.836 4.08796L436.651 0.172035C431.072 -0.990349 425.325 -1.57 419.414 -1.57V2.43ZM435.844 4.0896C441.274 5.19784 446.237 6.74442 450.74 8.72128L452.348 5.05871C447.557 2.95557 442.32 1.32882 436.643 0.170387L435.844 4.0896ZM450.74 8.72128C455.216 10.6865 458.929 13.0647 461.913 15.8356L464.634 12.9044C461.272 9.78193 457.165 7.17351 452.348 5.05871L450.74 8.72128ZM461.447 13.5547L452.947 32.5947L456.6 34.2253L465.1 15.1853L461.447 13.5547ZM455.995 31.826C450.401 27.514 444.545 24.2875 438.428 22.17L437.119 25.95C442.789 27.9125 448.266 30.9193 453.553 34.994L455.995 31.826ZM438.428 22.17C432.328 20.0586 426.1 19 419.754 19V23C425.647 23 431.432 23.9814 437.119 25.95L438.428 22.17ZM419.754 19C412.587 19 406.646 20.4663 402.123 23.6073L404.404 26.8927C408.041 24.367 413.093 23 419.754 23V19ZM402.154 23.5859C397.538 26.6634 395.144 31.0174 395.144 36.47H399.144C399.144 32.4026 400.829 29.2766 404.373 26.9141L402.154 23.5859ZM395.144 36.47C395.144 39.5182 396.086 42.208 398.018 44.417L401.029 41.783C399.788 40.3653 399.144 38.6351 399.144 36.47H395.144ZM398.018 44.417C399.9 46.5677 402.835 48.3572 406.591 49.8829L408.096 46.1771C404.599 44.7561 402.32 43.2589 401.029 41.783L398.018 44.417ZM406.66 49.9096C410.512 51.3104 415.703 52.7485 422.199 54.2299L423.088 50.3301C416.664 48.8648 411.655 47.4696 408.027 46.1504L406.66 49.9096ZM422.234 54.2377C429.751 55.8083 436.214 57.6507 441.64 59.7547L443.087 56.0253C437.406 53.8227 430.723 51.925 423.053 50.3223L422.234 54.2377ZM441.64 59.7547C447.059 61.8559 451.397 64.2568 454.708 66.9268L457.219 63.8132C453.503 60.8165 448.775 58.2308 443.087 56.0253L441.64 59.7547ZM454.764 66.97C458.15 69.51 460.586 72.4838 462.133 75.8876L465.774 74.2324C463.921 70.1562 461.03 66.67 457.164 63.77L454.764 66.97ZM462.143 75.9089C463.697 79.2245 464.504 83.1188 464.504 87.64H468.504C468.504 82.6412 467.61 78.1488 465.764 74.2111L462.143 75.9089ZM464.504 87.64C464.504 94.8656 462.623 101.021 458.926 106.198L462.181 108.522C466.417 102.592 468.504 95.6011 468.504 87.64H464.504ZM458.938 106.182C455.229 111.267 449.832 115.311 442.626 118.259L444.141 121.961C451.895 118.789 457.944 114.333 462.17 108.538L458.938 106.182ZM442.65 118.249C435.464 121.08 426.717 122.53 416.354 122.53V126.53C427.07 126.53 436.343 125.033 444.117 121.971L442.65 118.249ZM517.092 123H515.092V125H517.092V123ZM517.092 23.55H519.092V21.55H517.092V23.55ZM479.182 23.55H477.182V25.55H479.182V23.55ZM479.182 1.96V-0.0400028H477.182V1.96H479.182ZM581.862 1.96H583.862V-0.0400028H581.862V1.96ZM581.862 23.55V25.55H583.862V23.55H581.862ZM543.952 23.55V21.55H541.952V23.55H543.952ZM543.952 123V125H545.952V123H543.952ZM519.092 123V23.55H515.092V123H519.092ZM517.092 21.55H479.182V25.55H517.092V21.55ZM481.182 23.55V1.96H477.182V23.55H481.182ZM479.182 3.96H581.862V-0.0400028H479.182V3.96ZM579.862 1.96V23.55H583.862V1.96H579.862ZM581.862 21.55H543.952V25.55H581.862V21.55ZM541.952 23.55V123H545.952V23.55H541.952ZM543.952 121H517.092V125H543.952V121ZM601.91 123H599.91V125H601.91V123ZM601.91 1.96V-0.0400028H599.91V1.96H601.91ZM687.93 11.31L686.626 12.8268L686.633 12.8327L686.64 12.8386L687.93 11.31ZM687.59 63.5L688.897 65.0136L688.904 65.008L688.91 65.0023L687.59 63.5ZM656.31 73.19L655.904 71.2316L656.31 75.19V73.19ZM670.25 70.3V68.3H670.045L669.844 68.3416L670.25 70.3ZM681.47 74.04L680.261 75.6334L680.274 75.6432L680.287 75.6528L681.47 74.04ZM689.46 85.43L687.589 86.1368L687.592 86.1461L687.596 86.1553L689.46 85.43ZM704.08 123V125H707.004L705.944 122.275L704.08 123ZM676.03 123L674.163 123.717L674.655 125H676.03V123ZM660.56 82.71L658.69 83.4193L658.693 83.4269L660.56 82.71ZM654.61 76.08L653.777 77.8981L653.808 77.9127L653.841 77.9261L654.61 76.08ZM628.09 74.21V72.21H626.09V74.21H628.09ZM628.09 123V125H630.09V123H628.09ZM627.92 53.98H625.92V55.98H627.92V53.98ZM668.55 50.07L669.742 51.6762L668.55 50.07ZM668.55 26.27L667.333 27.8572L667.362 27.8797L667.392 27.901L668.55 26.27ZM627.92 22.36V20.36H625.92V22.36H627.92ZM603.91 123V1.96H599.91V123H603.91ZM601.91 3.96H655.8V-0.0400028H601.91V3.96ZM655.8 3.96C669.712 3.96 679.875 7.0253 686.626 12.8268L689.233 9.79316C681.478 3.12803 670.221 -0.0400028 655.8 -0.0400028V3.96ZM686.64 12.8386C693.355 18.5041 696.81 26.6198 696.81 37.49H700.81C700.81 25.6936 697.012 16.3559 689.22 9.78142L686.64 12.8386ZM696.81 37.49C696.81 47.7341 693.279 55.8375 686.27 61.9977L688.91 65.0023C696.86 58.0158 700.81 48.7792 700.81 37.49H696.81ZM686.283 61.9864C679.277 68.0367 669.374 71.19 656.31 71.19V75.19C669.993 75.19 680.943 71.8833 688.897 65.0136L686.283 61.9864ZM656.716 75.1484L670.656 72.2584L669.844 68.3416L655.904 71.2316L656.716 75.1484ZM670.25 72.3C674.014 72.3 677.328 73.4085 680.261 75.6334L682.679 72.4466C679.038 69.6848 674.872 68.3 670.25 68.3V72.3ZM680.287 75.6528C683.295 77.8588 685.759 81.2942 687.589 86.1368L691.331 84.7232C689.307 79.3658 686.444 75.2079 682.653 72.4272L680.287 75.6528ZM687.596 86.1553L702.216 123.725L705.944 122.275L691.324 84.7047L687.596 86.1553ZM704.08 121H676.03V125H704.08V121ZM677.897 122.283L662.427 81.9931L658.693 83.4269L674.163 123.717L677.897 122.283ZM662.43 82.0007C661.029 78.3072 658.704 75.6191 655.379 74.2338L653.841 77.9261C655.956 78.8075 657.597 80.5395 658.69 83.4193L662.43 82.0007ZM655.443 74.2619C652.42 72.8763 649.011 72.21 645.26 72.21V76.21C648.535 76.21 651.36 76.7904 653.777 77.8981L655.443 74.2619ZM645.26 72.21H628.09V76.21H645.26V72.21ZM626.09 74.21V123H630.09V74.21H626.09ZM628.09 121H601.91V125H628.09V121ZM627.92 55.98H651.89V51.98H627.92V55.98ZM651.89 55.98C659.63 55.98 665.711 54.6668 669.742 51.6762L667.358 48.4638C664.362 50.6865 659.336 51.98 651.89 51.98V55.98ZM669.742 51.6762C673.876 48.6088 675.82 43.9754 675.82 38.17H671.82C671.82 43.018 670.251 46.3178 667.358 48.4638L669.742 51.6762ZM675.82 38.17C675.82 32.272 673.887 27.6053 669.707 24.639L667.392 27.901C670.239 29.9213 671.82 33.1879 671.82 38.17H675.82ZM669.767 24.6828C665.833 21.6668 659.727 20.36 651.89 20.36V24.36C659.467 24.36 664.467 25.6598 667.333 27.8572L669.767 24.6828ZM651.89 20.36H627.92V24.36H651.89V20.36ZM625.92 22.36V53.98H629.92V22.36H625.92ZM751.531 116.88L752.531 115.148L751.531 116.88ZM730.961 95.29L729.181 96.2018L729.185 96.2103L729.19 96.2188L730.961 95.29ZM730.961 29.5L729.19 28.5712L729.185 28.5797L729.181 28.5882L730.961 29.5ZM751.531 8.07999L752.514 9.82195L752.522 9.81719L752.531 9.81236L751.531 8.07999ZM814.261 8.07999L813.252 9.80673L813.265 9.81444L813.278 9.82195L814.261 8.07999ZM834.661 29.5L832.881 30.4118L834.661 29.5ZM814.261 116.88L813.262 115.148L813.252 115.153L814.261 116.88ZM806.611 93.42L805.069 92.1469L805.067 92.1495L806.611 93.42ZM806.611 31.54L805.067 32.8105L805.078 32.8241L805.089 32.8375L806.611 31.54ZM759.181 31.54L760.716 32.8228L760.721 32.8167L760.726 32.8105L759.181 31.54ZM782.981 122.53C771.139 122.53 761.014 120.042 752.531 115.148L750.532 118.612C759.728 123.918 770.57 126.53 782.981 126.53V122.53ZM752.531 115.148C744.028 110.243 737.435 103.329 732.732 94.3612L729.19 96.2188C734.234 105.838 741.354 113.317 750.532 118.612L752.531 115.148ZM732.741 94.3783C728.154 85.4216 725.821 74.7538 725.821 62.31H721.821C721.821 75.2529 724.249 86.5717 729.181 96.2018L732.741 94.3783ZM725.821 62.31C725.821 49.9827 728.152 39.3707 732.741 30.4118L729.181 28.5882C724.25 38.2159 721.821 49.4772 721.821 62.31H725.821ZM732.732 30.4288C737.433 21.4646 744.021 14.6126 752.514 9.82195L750.548 6.33803C741.361 11.5208 734.236 18.9487 729.19 28.5712L732.732 30.4288ZM752.531 9.81236C761.014 4.9181 771.139 2.43 782.981 2.43V-1.57C770.57 -1.57 759.728 1.04189 750.532 6.34762L752.531 9.81236ZM782.981 2.43C794.824 2.43 804.887 4.9184 813.252 9.80673L815.27 6.35324C806.181 1.04159 795.391 -1.57 782.981 -1.57V2.43ZM813.278 9.82195C821.767 14.6102 828.294 21.4567 832.881 30.4118L836.441 28.5882C831.508 18.9566 824.435 11.5231 815.244 6.33803L813.278 9.82195ZM832.881 30.4118C837.47 39.3707 839.801 49.9827 839.801 62.31H843.801C843.801 49.4772 841.372 38.2159 836.441 28.5882L832.881 30.4118ZM839.801 62.31C839.801 74.7538 837.469 85.4216 832.881 94.3783L836.441 96.2018C841.374 86.5717 843.801 75.2529 843.801 62.31H839.801ZM832.881 94.3783C828.292 103.337 821.76 110.245 813.262 115.148L815.261 118.612C824.443 113.315 831.51 105.83 836.441 96.2018L832.881 94.3783ZM813.252 115.153C804.887 120.042 794.824 122.53 782.981 122.53V126.53C795.391 126.53 806.181 123.918 815.27 118.607L813.252 115.153ZM782.981 105.96C793.487 105.96 801.956 102.227 808.156 94.6905L805.067 92.1495C799.706 98.6661 792.422 101.96 782.981 101.96V105.96ZM808.154 94.6931C814.454 87.0601 817.451 76.1633 817.451 62.31H813.451C813.451 75.6567 810.555 85.4999 805.069 92.1469L808.154 94.6931ZM817.451 62.31C817.451 48.4629 814.456 37.6602 808.133 30.2425L805.089 32.8375C810.552 39.2464 813.451 48.9571 813.451 62.31H817.451ZM808.156 30.2695C801.956 22.7327 793.487 19 782.981 19V23C792.422 23 799.706 26.2939 805.067 32.8105L808.156 30.2695ZM782.981 19C772.37 19 763.841 22.727 757.637 30.2695L760.726 32.8105C766.081 26.2997 773.419 23 782.981 23V19ZM757.647 30.2572C751.446 37.674 748.511 48.4705 748.511 62.31H752.511C752.511 48.9495 755.356 39.2327 760.716 32.8228L757.647 30.2572ZM748.511 62.31C748.511 76.2612 751.445 87.1637 757.637 94.6905L760.726 92.1495C755.357 85.623 752.511 75.7854 752.511 62.31H748.511ZM757.637 94.6905C763.841 102.233 772.37 105.96 782.981 105.96V101.96C773.419 101.96 766.081 98.6603 760.726 92.1495L757.637 94.6905ZM0.0700006 278H-1.93V280H0.0700006V278ZM0.0700006 156.96V154.96H-1.93V156.96H0.0700006ZM83.54 156.96H85.54V154.96H83.54V156.96ZM83.54 177.53V179.53H85.54V177.53H83.54ZM26.08 177.53V175.53H24.08V177.53H26.08ZM26.08 206.09H24.08V208.09H26.08V206.09ZM79.97 206.09H81.97V204.09H79.97V206.09ZM79.97 226.83V228.83H81.97V226.83H79.97ZM26.08 226.83V224.83H24.08V226.83H26.08ZM26.08 257.43H24.08V259.43H26.08V257.43ZM83.54 257.43H85.54V255.43H83.54V257.43ZM83.54 278V280H85.54V278H83.54ZM2.07 278V156.96H-1.93V278H2.07ZM0.0700006 158.96H83.54V154.96H0.0700006V158.96ZM81.54 156.96V177.53H85.54V156.96H81.54ZM83.54 175.53H26.08V179.53H83.54V175.53ZM24.08 177.53V206.09H28.08V177.53H24.08ZM26.08 208.09H79.97V204.09H26.08V208.09ZM77.97 206.09V226.83H81.97V206.09H77.97ZM79.97 224.83H26.08V228.83H79.97V224.83ZM24.08 226.83V257.43H28.08V226.83H24.08ZM26.08 259.43H83.54V255.43H26.08V259.43ZM81.54 257.43V278H85.54V257.43H81.54ZM83.54 276H0.0700006V280H83.54V276ZM196.358 310.47L195.248 312.134L196.427 312.92L197.56 312.068L196.358 310.47ZM179.698 296.02L178.194 297.339L178.202 297.348L178.209 297.356L179.698 296.02ZM167.118 278.68L166.368 276.826L164.223 277.693L165.391 279.69L167.118 278.68ZM190.238 269.33L192.033 268.45L191.214 266.778L189.488 267.476L190.238 269.33ZM200.948 284.63L199.515 286.026L199.516 286.026L200.948 284.63ZM214.208 297.04L215.41 298.638L217.412 297.132L215.499 295.513L214.208 297.04ZM131.928 271.88L132.927 270.148L131.928 271.88ZM111.358 250.29L109.577 251.202L109.582 251.21L109.586 251.219L111.358 250.29ZM111.358 184.5L109.586 183.571L109.582 183.58L109.577 183.588L111.358 184.5ZM131.928 163.08L132.91 164.822L132.919 164.817L132.927 164.812L131.928 163.08ZM194.658 163.08L193.648 164.807L193.662 164.814L193.675 164.822L194.658 163.08ZM215.058 184.5L213.277 185.412L215.058 184.5ZM194.658 271.88L193.658 270.148L193.648 270.153L194.658 271.88ZM187.008 248.42L185.465 247.147L185.463 247.149L187.008 248.42ZM187.008 186.54L185.463 187.811L185.474 187.824L185.486 187.837L187.008 186.54ZM139.578 186.54L141.112 187.823L141.117 187.817L141.122 187.811L139.578 186.54ZM197.467 308.806C191.489 304.82 186.062 300.114 181.186 294.684L178.209 297.356C183.306 303.032 188.987 307.96 195.248 312.134L197.467 308.806ZM181.201 294.701C176.406 289.237 172.289 283.56 168.844 277.67L165.391 279.69C168.973 285.813 173.242 291.696 178.194 297.339L181.201 294.701ZM167.867 280.534L190.987 271.184L189.488 267.476L166.368 276.826L167.867 280.534ZM188.442 270.21C191.364 276.172 195.055 281.448 199.515 286.026L202.38 283.234C198.227 278.972 194.778 274.048 192.033 268.45L188.442 270.21ZM199.516 286.026C203.976 290.601 208.443 294.782 212.916 298.567L215.499 295.513C211.132 291.818 206.759 287.726 202.38 283.234L199.516 286.026ZM213.005 295.442L195.155 308.872L197.56 312.068L215.41 298.638L213.005 295.442ZM163.378 277.53C151.535 277.53 141.41 275.042 132.927 270.148L130.928 273.612C140.125 278.918 150.966 281.53 163.378 281.53V277.53ZM132.927 270.148C124.425 265.243 117.831 258.329 113.129 249.361L109.586 251.219C114.63 260.838 121.75 268.317 130.928 273.612L132.927 270.148ZM113.138 249.378C108.55 240.422 106.218 229.754 106.218 217.31H102.218C102.218 230.253 104.645 241.572 109.577 251.202L113.138 249.378ZM106.218 217.31C106.218 204.983 108.549 194.371 113.138 185.412L109.577 183.588C104.646 193.216 102.218 204.477 102.218 217.31H106.218ZM113.129 185.429C117.83 176.465 124.418 169.613 132.91 164.822L130.945 161.338C121.757 166.521 114.632 173.949 109.586 183.571L113.129 185.429ZM132.927 164.812C141.41 159.918 151.535 157.43 163.378 157.43V153.43C150.966 153.43 140.125 156.042 130.928 161.348L132.927 164.812ZM163.378 157.43C175.221 157.43 185.284 159.918 193.648 164.807L195.667 161.353C186.578 156.042 175.788 153.43 163.378 153.43V157.43ZM193.675 164.822C202.163 169.61 208.691 176.457 213.277 185.412L216.838 183.588C211.904 173.957 204.832 166.523 195.64 161.338L193.675 164.822ZM213.277 185.412C217.866 194.371 220.198 204.983 220.198 217.31H224.198C224.198 204.477 221.769 193.216 216.838 183.588L213.277 185.412ZM220.198 217.31C220.198 229.754 217.865 240.422 213.277 249.378L216.838 251.202C221.77 241.572 224.198 230.253 224.198 217.31H220.198ZM213.277 249.378C208.689 258.337 202.156 265.245 193.658 270.148L195.657 273.612C204.839 268.315 211.906 260.83 216.838 251.202L213.277 249.378ZM193.648 270.153C185.284 275.042 175.221 277.53 163.378 277.53V281.53C175.788 281.53 186.578 278.918 195.667 273.607L193.648 270.153ZM163.378 260.96C173.884 260.96 182.353 257.227 188.552 249.691L185.463 247.149C180.103 253.666 172.818 256.96 163.378 256.96V260.96ZM188.55 249.693C194.85 242.06 197.848 231.163 197.848 217.31H193.848C193.848 230.657 190.951 240.5 185.465 247.147L188.55 249.693ZM197.848 217.31C197.848 203.463 194.853 192.66 188.53 185.243L185.486 187.837C190.949 194.246 193.848 203.957 193.848 217.31H197.848ZM188.552 185.269C182.353 177.733 173.884 174 163.378 174V178C172.818 178 180.103 181.294 185.463 187.811L188.552 185.269ZM163.378 174C152.766 174 144.237 177.727 138.033 185.269L141.122 187.811C146.478 181.3 153.815 178 163.378 178V174ZM138.043 185.257C131.842 192.674 128.908 203.471 128.908 217.31H132.908C132.908 203.949 135.753 194.233 141.112 187.823L138.043 185.257ZM128.908 217.31C128.908 231.261 131.842 242.164 138.033 249.691L141.122 247.149C135.754 240.623 132.908 230.785 132.908 217.31H128.908ZM138.033 249.691C144.237 257.233 152.766 260.96 163.378 260.96V256.96C153.815 256.96 146.478 253.66 141.122 247.149L138.033 249.691ZM261.454 266.44L260.04 267.854L260.049 267.863L261.454 266.44ZM248.364 156.96V154.96H246.364V156.96H248.364ZM274.204 156.96H276.204V154.96H274.204V156.96ZM280.834 251.31L279.323 252.62L280.834 251.31ZM319.424 251.31L320.936 252.62L319.424 251.31ZM326.054 156.96V154.96H324.054V156.96H326.054ZM352.404 156.96H354.404V154.96H352.404V156.96ZM338.974 266.44L340.37 267.872L340.379 267.863L338.974 266.44ZM300.384 277.53C283.595 277.53 271.202 273.253 262.859 265.017L260.049 267.863C269.386 277.081 282.947 281.53 300.384 281.53V277.53ZM262.868 265.026C254.638 256.795 250.364 244.576 250.364 228.02H246.364C246.364 245.237 250.817 258.631 260.04 267.854L262.868 265.026ZM250.364 228.02V156.96H246.364V228.02H250.364ZM248.364 158.96H274.204V154.96H248.364V158.96ZM272.204 156.96V229.21H276.204V156.96H272.204ZM272.204 229.21C272.204 239.122 274.476 247.028 279.323 252.62L282.346 250C278.352 245.392 276.204 238.565 276.204 229.21H272.204ZM279.323 252.62C284.223 258.273 291.363 260.96 300.384 260.96V256.96C292.179 256.96 286.286 254.547 282.346 250L279.323 252.62ZM300.384 260.96C309.095 260.96 316.051 258.256 320.936 252.62L317.913 250C313.957 254.564 308.22 256.96 300.384 256.96V260.96ZM320.936 252.62C325.782 247.028 328.054 239.122 328.054 229.21H324.054C324.054 238.565 321.906 245.392 317.913 250L320.936 252.62ZM328.054 229.21V156.96H324.054V229.21H328.054ZM326.054 158.96H352.404V154.96H326.054V158.96ZM350.404 156.96V228.02H354.404V156.96H350.404ZM350.404 228.02C350.404 244.443 346.028 256.665 337.569 265.017L340.379 267.863C349.827 258.535 354.404 245.144 354.404 228.02H350.404ZM337.578 265.008C329.112 273.26 316.819 277.53 300.384 277.53V281.53C317.496 281.53 330.93 277.073 340.37 267.872L337.578 265.008ZM381.66 278H379.66V280H381.66V278ZM381.66 156.96V154.96H379.66V156.96H381.66ZM408.18 156.96H410.18V154.96H408.18V156.96ZM408.18 278V280H410.18V278H408.18ZM383.66 278V156.96H379.66V278H383.66ZM381.66 158.96H408.18V154.96H381.66V158.96ZM406.18 156.96V278H410.18V156.96H406.18ZM408.18 276H381.66V280H408.18V276ZM438.411 278H436.411V280H438.411V278ZM438.411 156.96V154.96H436.411V156.96H438.411ZM524.601 166.65L523.271 168.144L523.277 168.149L523.282 168.154L524.601 166.65ZM524.431 219.35L525.75 220.854L525.751 220.852L524.431 219.35ZM464.931 229.04V227.04H462.931V229.04H464.931ZM464.931 278V280H466.931V278H464.931ZM464.931 208.81H462.931V210.81H464.931V208.81ZM505.561 204.73L504.312 203.168L505.561 204.73ZM505.561 181.44L504.286 182.981L504.299 182.991L504.312 183.002L505.561 181.44ZM464.931 177.36V175.36H462.931V177.36H464.931ZM440.411 278V156.96H436.411V278H440.411ZM438.411 158.96H493.321V154.96H438.411V158.96ZM493.321 158.96C506.626 158.96 516.508 162.12 523.271 168.144L525.931 165.156C518.188 158.26 507.216 154.96 493.321 154.96V158.96ZM523.282 168.154C530.156 174.181 533.651 182.384 533.651 193H537.651C537.651 181.403 533.78 172.039 525.92 165.146L523.282 168.154ZM533.651 193C533.651 203.485 530.111 211.696 523.111 217.848L525.751 220.852C533.711 213.857 537.651 204.502 537.651 193H533.651ZM523.112 217.846C516.225 223.886 506.387 227.04 493.321 227.04V231.04C507.002 231.04 517.904 227.734 525.75 220.854L523.112 217.846ZM493.321 227.04H464.931V231.04H493.321V227.04ZM462.931 229.04V278H466.931V229.04H462.931ZM464.931 276H438.411V280H464.931V276ZM464.931 210.81H489.921V206.81H464.931V210.81ZM489.921 210.81C497.143 210.81 502.896 209.423 506.81 206.292L504.312 203.168C501.426 205.477 496.753 206.81 489.921 206.81V210.81ZM506.81 206.292C510.757 203.134 512.661 198.665 512.661 193.17H508.661C508.661 197.649 507.165 200.886 504.312 203.168L506.81 206.292ZM512.661 193.17C512.661 187.579 510.769 183.045 506.81 179.878L504.312 183.002C507.153 185.275 508.661 188.561 508.661 193.17H512.661ZM506.836 179.899C503.018 176.74 497.238 175.36 489.921 175.36V179.36C496.884 179.36 501.53 180.7 504.286 182.981L506.836 179.899ZM489.921 175.36H464.931V179.36H489.921V175.36ZM462.931 177.36V208.81H466.931V177.36H462.931ZM583.052 271.88L584.051 270.148L583.052 271.88ZM562.482 250.29L560.702 251.202L560.706 251.21L560.711 251.219L562.482 250.29ZM562.482 184.5L560.711 183.571L560.706 183.58L560.702 183.588L562.482 184.5ZM583.052 163.08L584.034 164.822L584.043 164.817L584.051 164.812L583.052 163.08ZM645.782 163.08L644.773 164.807L644.786 164.814L644.799 164.822L645.782 163.08ZM666.182 184.5L664.402 185.412L666.182 184.5ZM645.782 271.88L644.782 270.148L644.773 270.153L645.782 271.88ZM638.132 248.42L636.589 247.147L636.587 247.149L638.132 248.42ZM638.132 186.54L636.587 187.811L636.598 187.824L636.61 187.837L638.132 186.54ZM590.702 186.54L592.236 187.823L592.241 187.817L592.246 187.811L590.702 186.54ZM614.502 277.53C602.66 277.53 592.535 275.042 584.051 270.148L582.052 273.612C591.249 278.918 602.091 281.53 614.502 281.53V277.53ZM584.051 270.148C575.549 265.243 568.956 258.329 564.253 249.361L560.711 251.219C565.755 260.838 572.875 268.317 582.052 273.612L584.051 270.148ZM564.262 249.378C559.674 240.422 557.342 229.754 557.342 217.31H553.342C553.342 230.253 555.769 241.572 560.702 251.202L564.262 249.378ZM557.342 217.31C557.342 204.983 559.673 194.371 564.262 185.412L560.702 183.588C555.77 193.216 553.342 204.477 553.342 217.31H557.342ZM564.253 185.429C568.954 176.465 575.542 169.613 584.034 164.822L582.069 161.338C572.882 166.521 565.756 173.949 560.711 183.571L564.253 185.429ZM584.051 164.812C592.535 159.918 602.66 157.43 614.502 157.43V153.43C602.091 153.43 591.249 156.042 582.052 161.348L584.051 164.812ZM614.502 157.43C626.345 157.43 636.408 159.918 644.773 164.807L646.791 161.353C637.702 156.042 626.912 153.43 614.502 153.43V157.43ZM644.799 164.822C653.287 169.61 659.815 176.457 664.402 185.412L667.962 183.588C663.029 173.957 655.956 166.523 646.764 161.338L644.799 164.822ZM664.402 185.412C668.99 194.371 671.322 204.983 671.322 217.31H675.322C675.322 204.477 672.893 193.216 667.962 183.588L664.402 185.412ZM671.322 217.31C671.322 229.754 668.989 240.422 664.402 249.378L667.962 251.202C672.894 241.572 675.322 230.253 675.322 217.31H671.322ZM664.402 249.378C659.813 258.337 653.28 265.245 644.782 270.148L646.781 273.612C655.963 268.315 663.03 260.83 667.962 251.202L664.402 249.378ZM644.773 270.153C636.408 275.042 626.345 277.53 614.502 277.53V281.53C626.912 281.53 637.702 278.918 646.791 273.607L644.773 270.153ZM614.502 260.96C625.008 260.96 633.477 257.227 639.676 249.691L636.587 247.149C631.227 253.666 623.942 256.96 614.502 256.96V260.96ZM639.674 249.693C645.975 242.06 648.972 231.163 648.972 217.31H644.972C644.972 230.657 642.076 240.5 636.589 247.147L639.674 249.693ZM648.972 217.31C648.972 203.463 645.977 192.66 639.654 185.243L636.61 187.837C642.073 194.246 644.972 203.957 644.972 217.31H648.972ZM639.676 185.269C633.477 177.733 625.008 174 614.502 174V178C623.942 178 631.227 181.294 636.587 187.811L639.676 185.269ZM614.502 174C603.891 174 595.362 177.727 589.157 185.269L592.246 187.811C597.602 181.3 604.94 178 614.502 178V174ZM589.167 185.257C582.966 192.674 580.032 203.471 580.032 217.31H584.032C584.032 203.949 586.877 194.233 592.236 187.823L589.167 185.257ZM580.032 217.31C580.032 231.261 582.966 242.164 589.157 249.691L592.246 247.149C586.878 240.623 584.032 230.785 584.032 217.31H580.032ZM589.157 249.691C595.362 257.233 603.891 260.96 614.502 260.96V256.96C604.94 256.96 597.602 253.66 592.246 247.149L589.157 249.691Z" fill="white"/>
</svg>
