<?xml version="1.0" encoding="utf-8"?>
<!-- Generator: Adobe Illustrator 26.0.3, SVG Export Plug-In . SVG Version: 6.00 Build 0)  -->
<svg version="1.1" id="Layer_1" xmlns="http://www.w3.org/2000/svg" xmlns:xlink="http://www.w3.org/1999/xlink" x="0px" y="0px"
	 viewBox="0 0 979.8 403.2" style="enable-background:new 0 0 979.8 403.2;" xml:space="preserve">
<style type="text/css">
	.st0{fill:none;stroke:#FFFFFF;stroke-miterlimit:10;}
</style>
<g>
	<polygon class="st0" points="138,12 108.6,12 108.6,102.6 37.6,12 14.6,12 14.6,154.4 43.8,154.4 43.8,63.7 114.8,154.4 138,154.4 
			"/>
	<path class="st0" d="M257.4,97c0,11.3-2.6,20-7.8,26c-5.2,6-12.7,9-22.4,9c-10.1,0-17.8-3-23-9c-5.2-6-7.8-14.7-7.8-26V12H166v83.6
		c0,19.9,5.2,34.9,15.5,45.2c10.3,10.3,25.6,15.4,45.7,15.4c19.7,0,34.9-5.2,45.4-15.5c10.5-10.3,15.8-25.4,15.8-45.1V12h-31V97z"/>
	<polygon class="st0" points="414,130.2 346.4,130.2 346.4,94.2 409.8,94.2 409.8,69.8 346.4,69.8 346.4,36.2 414,36.2 414,12 
		315.8,12 315.8,154.4 414,154.4 	"/>
	<path class="st0" d="M535.4,135.9c4.7-6.5,7-14.2,7-23.1c0-5.6-1-10.6-3-14.9c-2-4.3-5.1-8.1-9.3-11.4c-4.2-3.3-9.6-6.2-16.1-8.7
		c-6.5-2.5-14.3-4.7-23.2-6.6c-7.6-1.7-13.6-3.4-17.9-5.1c-4.3-1.7-7.4-3.6-9.3-5.7c-1.9-2.1-2.8-4.7-2.8-7.8c0-5.6,2.4-10,7.2-13.3
		c4.8-3.3,11.3-4.9,19.4-4.9c7.2,0,14.3,1.2,21.2,3.6c6.9,2.4,13.6,6.1,20,11l10-22.4c-3.7-3.5-8.3-6.4-13.8-8.8
		c-5.5-2.4-11.4-4.3-17.9-5.6c-6.5-1.3-13.1-2-19.9-2c-11.3,0-21.2,1.9-29.7,5.8c-8.5,3.9-15.1,9.2-19.8,15.9
		c-4.7,6.7-7.1,14.3-7.1,22.7c0,5.9,0.9,11,2.8,15.5c1.9,4.5,4.8,8.4,8.9,11.7c4.1,3.3,9.4,6.3,15.9,8.8c6.5,2.5,14.4,4.7,23.6,6.6
		c7.3,1.6,13.2,3.2,17.6,4.8c4.4,1.6,7.6,3.5,9.6,5.6c2,2.1,3,4.7,3,7.8c0,5.2-2.4,9.3-7.3,12.2c-4.9,2.9-11.8,4.4-20.9,4.4
		c-8.4,0-16.4-1.2-24-3.6c-7.6-2.4-14.9-6.1-22-11l-10.2,22.4c4.4,3.5,9.6,6.4,15.6,8.9c6,2.5,12.4,4.3,19.3,5.6
		c6.9,1.3,13.9,1.9,21.1,1.9c12.4,0,23-1.8,31.8-5.3S530.7,142.4,535.4,135.9z"/>
	<polygon class="st0" points="671,12 550.2,12 550.2,37.4 594.8,37.4 594.8,154.4 626.4,154.4 626.4,37.4 671,37.4 	"/>
	<path class="st0" d="M781.3,96.8c-2.6-2-5.5-3.3-8.6-3.9c6.1-1.9,11.3-4.8,15.7-8.6c8.8-7.7,13.2-17.8,13.2-30.5
		c0-13.3-4.3-23.6-12.8-30.9C780.3,15.6,767.7,12,751,12h-63.4v142.4h30.8V97h20.2c4.1,0,7.8,0.7,11,2.1c3.2,1.4,5.5,4,7,7.9
		l18.2,47.4h33l-17.2-44.2C788.3,104.2,785.2,99.7,781.3,96.8z M746.4,73.2h-28.2V36h28.2c9.1,0,15.6,1.5,19.7,4.5
		c4.1,3,6.1,7.7,6.1,14.1c0,6.3-2.1,10.9-6.2,14C761.9,71.7,755.3,73.2,746.4,73.2z"/>
	<path class="st0" d="M954.4,44.4c-5.6-10.9-13.6-19.4-23.9-25.3c-10.3-5.9-22.6-8.9-36.9-8.9c-14.3,0-26.6,3-37,8.9
		c-10.4,5.9-18.4,14.4-24.1,25.3C826.8,55.3,824,68.2,824,83c0,14.9,2.8,27.9,8.5,38.8c5.7,10.9,13.7,19.4,24.1,25.4
		c10.4,6,22.7,9,37,9c14.3,0,26.6-3,36.9-9c10.3-6,18.3-14.5,23.9-25.4c5.6-10.9,8.4-23.9,8.4-38.8C962.8,68.2,960,55.3,954.4,44.4z
		 M921.5,119.5c-6.9,8.3-16.2,12.5-27.9,12.5c-11.9,0-21.2-4.1-28-12.4c-6.8-8.3-10.2-20.5-10.2-36.6c0-16,3.4-28.1,10.2-36.3
		c6.8-8.2,16.1-12.3,28-12.3c11.7,0,21,4.1,27.9,12.3c6.9,8.2,10.3,20.3,10.3,36.3S928.4,111.2,921.5,119.5z"/>
	<polygon class="st0" points="14.6,354.8 112.8,354.8 112.8,330.6 45.2,330.6 45.2,294.6 108.6,294.6 108.6,270.2 45.2,270.2 
		45.2,236.6 112.8,236.6 112.8,212.4 14.6,212.4 	"/>
	<path class="st0" d="M236.7,219.5c-10.3-5.9-22.6-8.9-36.9-8.9c-14.3,0-26.6,3-37,8.9c-10.4,5.9-18.4,14.4-24.1,25.3
		c-5.7,10.9-8.5,23.8-8.5,38.6c0,14.9,2.8,27.9,8.5,38.8c5.7,10.9,13.7,19.4,24.1,25.4s22.7,9,37,9c1.7,0,3.3,0,4.9-0.1
		c4,6.8,8.8,13.3,14.4,19.5c5.8,6.5,12.3,12.2,19.5,17l21-15.8c-5.2-4.4-10.4-9.2-15.5-14.5c-4-4.1-7.4-8.6-10.3-13.6
		c1-0.5,1.9-1,2.9-1.5c10.3-6,18.3-14.5,23.9-25.4c5.6-10.9,8.4-23.9,8.4-38.8c0-14.8-2.8-27.7-8.4-38.6
		C255,233.9,247,225.4,236.7,219.5z M227.7,319.9c-6.9,8.3-16.2,12.5-27.9,12.5c-11.9,0-21.2-4.1-28-12.4
		c-6.8-8.3-10.2-20.5-10.2-36.6c0-16,3.4-28.1,10.2-36.3c6.8-8.2,16.1-12.3,28-12.3c11.7,0,21,4.1,27.9,12.3
		c6.9,8.2,10.3,20.3,10.3,36.3S234.6,311.6,227.7,319.9z"/>
	<path class="st0" d="M384.2,297.4c0,11.3-2.6,20-7.8,26c-5.2,6-12.7,9-22.4,9c-10.1,0-17.8-3-23-9c-5.2-6-7.8-14.7-7.8-26v-85
		h-30.4V296c0,19.9,5.2,34.9,15.5,45.2c10.3,10.3,25.6,15.4,45.7,15.4c19.7,0,34.9-5.2,45.4-15.5c10.5-10.3,15.8-25.4,15.8-45.1
		v-83.6h-31V297.4z"/>
	<rect x="442.6" y="212.4" class="st0" width="31.2" height="142.4"/>
	<path class="st0" d="M603.9,223.8c-8.6-7.6-20.9-11.4-36.9-11.4h-64.6v142.4h31.2v-57.6H567c15.7,0,28-3.8,36.7-11.5
		c8.7-7.7,13.1-18,13.1-30.9C616.8,241.7,612.5,231.4,603.9,223.8z M581.4,268.6c-4,3.2-10.1,4.8-18.4,4.8h-29.4v-37H563
		c8.4,0,14.6,1.6,18.5,4.8c3.9,3.2,5.9,7.8,5.9,13.8C587.4,260.9,585.4,265.4,581.4,268.6z"/>
	<path class="st0" d="M739.5,219.5c-10.3-5.9-22.6-8.9-36.9-8.9c-14.3,0-26.6,3-37,8.9c-10.4,5.9-18.4,14.4-24.1,25.3
		c-5.7,10.9-8.5,23.8-8.5,38.6c0,14.9,2.8,27.9,8.5,38.8c5.7,10.9,13.7,19.4,24.1,25.4c10.4,6,22.7,9,37,9c14.3,0,26.6-3,36.9-9
		c10.3-6,18.3-14.5,23.9-25.4c5.6-10.9,8.4-23.9,8.4-38.8c0-14.8-2.8-27.7-8.4-38.6C757.8,233.9,749.8,225.4,739.5,219.5z
		 M730.5,319.9c-6.9,8.3-16.2,12.5-27.9,12.5c-11.9,0-21.2-4.1-28-12.4c-6.8-8.3-10.2-20.5-10.2-36.6c0-16,3.4-28.1,10.2-36.3
		c6.8-8.2,16.1-12.3,28-12.3c11.7,0,21,4.1,27.9,12.3c6.9,8.2,10.3,20.3,10.3,36.3S737.4,311.6,730.5,319.9z"/>
</g>
</svg>
