<?xml version="1.0" encoding="utf-8"?>
<!-- Generator: Adobe Illustrator 26.0.3, SVG Export Plug-In . SVG Version: 6.00 Build 0)  -->
<svg version="1.1" id="Layer_1" xmlns="http://www.w3.org/2000/svg" xmlns:xlink="http://www.w3.org/1999/xlink" x="0px" y="0px"
	 viewBox="0 0 757.4 167.8" style="enable-background:new 0 0 757.4 167.8;" xml:space="preserve">
<style type="text/css">
	.st0{fill:none;stroke:#666666;}
</style>
<g>
	<path class="st0" d="M116.3,86.6c-4.5-3.1-10-5.8-16.5-8.1c-6.5-2.3-13.8-4.3-22.1-6C70.5,70.7,64.6,69,60,67.3
		c-4.6-1.7-8-3.9-10.2-6.4c-2.2-2.5-3.3-5.7-3.3-9.6c0-6.7,2.7-11.9,8-15.6c5.3-3.7,12.6-5.6,21.8-5.6c7.6,0,14.9,1.2,21.8,3.7
		c6.9,2.5,13.6,6.3,20,11.5l8.8-18.8c-3.9-3.6-8.5-6.6-13.8-9.1c-5.3-2.5-11.2-4.4-17.5-5.7c-6.3-1.3-12.8-2-19.5-2
		c-11.1,0-20.7,1.8-28.9,5.5c-8.2,3.7-14.6,8.8-19.1,15.3c-4.5,6.5-6.8,14-6.8,22.4c0,6.1,1.1,11.4,3.3,15.9
		c2.2,4.5,5.4,8.3,9.7,11.5c4.3,3.2,9.6,6,16,8.3c6.4,2.3,13.8,4.3,22.2,5.9c7.1,1.6,13,3.3,17.8,5c4.8,1.7,8.4,3.8,10.8,6.3
		c2.4,2.5,3.6,5.6,3.6,9.3c0,6.3-2.7,11.1-8.1,14.6c-5.4,3.5-13,5.2-22.9,5.2c-8.9,0-17.1-1.2-24.6-3.6c-7.5-2.4-14.8-6.3-22-11.6
		l-8.6,18.8c4.4,3.6,9.5,6.7,15.3,9.2c5.8,2.5,12,4.4,18.7,5.7c6.7,1.3,13.7,1.9,21,1.9c11.7,0,21.8-1.7,30.3-5.1
		c8.5-3.4,15-8.3,19.5-14.6c4.5-6.3,6.8-13.8,6.8-22.3c0-6-1.2-11.2-3.5-15.5C124.3,93.4,120.8,89.7,116.3,86.6z"/>
	<path class="st0" d="M253.7,18.5c-10.1-5.9-22.2-8.8-36.2-8.8c-13.9,0-25.9,2.9-36,8.8c-10.1,5.9-17.9,14.2-23.4,25.1
		c-5.5,10.9-8.2,23.8-8.2,38.9c0,14.9,2.7,27.9,8.2,38.8c5.5,10.9,13.3,19.3,23.4,25.2c10.1,5.9,22.1,8.8,36,8.8
		c14,0,26-2.9,36.1-8.8c10.1-5.9,17.9-14.3,23.4-25.2c5.5-10.9,8.3-23.9,8.3-39c0-14.9-2.7-27.8-8.2-38.7
		C271.6,32.7,263.8,24.3,253.7,18.5z M248.3,121.4c-7.5,9-17.7,13.5-30.8,13.5c-12.9,0-23.1-4.5-30.6-13.5c-7.5-9-11.2-22-11.2-39.1
		c0-17.1,3.7-30,11.2-38.9c7.5-8.9,17.7-13.3,30.6-13.3c13.1,0,23.3,4.4,30.8,13.3c7.5,8.9,11.2,21.8,11.2,38.9
		C259.5,99.3,255.8,112.4,248.3,121.4z"/>
	<polygon class="st0" points="381.6,122.7 332.7,11.3 312.1,11.3 312.1,153.7 334.9,153.7 334.7,66.4 372.9,153.7 389.9,153.7 
		427.5,65.7 427.7,153.7 450.7,153.7 450.7,11.3 430.1,11.3 	"/>
	<path class="st0" d="M581.1,18.5c-10.1-5.9-22.2-8.8-36.2-8.8c-13.9,0-25.9,2.9-36,8.8c-10.1,5.9-17.9,14.2-23.4,25.1
		c-5.5,10.9-8.2,23.8-8.2,38.9c0,14.9,2.7,27.9,8.2,38.8c5.5,10.9,13.3,19.3,23.4,25.2c10.1,5.9,22.1,8.8,36,8.8
		c14,0,26-2.9,36.1-8.8c10.1-5.9,17.9-14.3,23.4-25.2c5.5-10.9,8.3-23.9,8.3-39c0-14.9-2.7-27.8-8.2-38.7
		C599,32.7,591.2,24.3,581.1,18.5z M575.7,121.4c-7.5,9-17.7,13.5-30.8,13.5c-12.9,0-23.1-4.5-30.6-13.5c-7.5-9-11.2-22-11.2-39.1
		c0-17.1,3.7-30,11.2-38.9c7.5-8.9,17.7-13.3,30.6-13.3c13.1,0,23.3,4.4,30.8,13.3c7.5,8.9,11.2,21.8,11.2,38.9
		C586.9,99.3,583.2,112.4,575.7,121.4z"/>
	<path class="st0" d="M740.4,97.8c-2.3-4.3-5.8-8.1-10.3-11.2c-4.5-3.1-10-5.8-16.5-8.1c-6.5-2.3-13.8-4.3-22.1-6
		c-7.2-1.7-13.1-3.5-17.7-5.2c-4.6-1.7-8-3.9-10.2-6.4c-2.2-2.5-3.3-5.7-3.3-9.6c0-6.7,2.7-11.9,8-15.6c5.3-3.7,12.6-5.6,21.8-5.6
		c7.6,0,14.9,1.2,21.8,3.7c6.9,2.5,13.6,6.3,20,11.5l8.8-18.8c-3.9-3.6-8.5-6.6-13.8-9.1c-5.3-2.5-11.2-4.4-17.5-5.7
		c-6.3-1.3-12.8-2-19.5-2c-11.1,0-20.7,1.8-28.9,5.5c-8.2,3.7-14.6,8.8-19.1,15.3c-4.5,6.5-6.8,14-6.8,22.4c0,6.1,1.1,11.4,3.3,15.9
		c2.2,4.5,5.4,8.3,9.7,11.5c4.3,3.2,9.6,6,16,8.3c6.4,2.3,13.8,4.3,22.2,5.9c7.1,1.6,13,3.3,17.8,5c4.8,1.7,8.4,3.8,10.8,6.3
		c2.4,2.5,3.6,5.6,3.6,9.3c0,6.3-2.7,11.1-8.1,14.6c-5.4,3.5-13,5.2-22.9,5.2c-8.9,0-17.1-1.2-24.6-3.6c-7.5-2.4-14.8-6.3-22-11.6
		l-8.6,18.8c4.4,3.6,9.5,6.7,15.3,9.2c5.8,2.5,12,4.4,18.7,5.7c6.7,1.3,13.7,1.9,21,1.9c11.7,0,21.8-1.7,30.3-5.1
		c8.5-3.4,15-8.3,19.5-14.6c4.5-6.3,6.8-13.8,6.8-22.3C743.9,107.3,742.7,102.1,740.4,97.8z"/>
</g>
</svg>
