<?xml version="1.0" encoding="utf-8"?>
<!-- Generator: Adobe Illustrator 26.0.3, SVG Export Plug-In . SVG Version: 6.00 Build 0)  -->
<svg version="1.1" id="Capa_1" xmlns="http://www.w3.org/2000/svg" xmlns:xlink="http://www.w3.org/1999/xlink" x="0px" y="0px"
	 viewBox="0 0 1399.38 401.84" style="enable-background:new 0 0 1399.38 401.84;" xml:space="preserve">
<style type="text/css">
	.st0{clip-path:url(#SVGID_00000160189864397547026360000003049862455648508574_);}
	.st1{fill:none;stroke:#FFFFFF;stroke-width:3;}
</style>
<g>
	<defs>
		<rect id="SVGID_1_" x="28.72" y="111.74" width="1341.95" height="178.36"/>
	</defs>
	<clipPath id="SVGID_00000054240487153242435750000011405172967141935282_">
		<use xlink:href="#SVGID_1_"  style="overflow:visible;"/>
	</clipPath>
	<g id="Grupo_1" transform="translate(0 0)" style="clip-path:url(#SVGID_00000054240487153242435750000011405172967141935282_);">
		<path id="Trazado_2" class="st1" d="M115.96,201.93l-65.32-83.35H29.48v131.01h26.86v-83.45l65.32,83.45h21.34V118.58h-27.05
			V201.93z"/>
		<path id="Trazado_3" class="st1" d="M228.57,207.82c0,6.5-1.78,11.72-5.34,15.64c-3.5,3.9-8.56,6.06-13.8,5.89
			c-5.03,0-8.74-1.38-11.13-4.14s-3.59-7.02-3.59-12.79V156.3h-27.78v55.57c0,13.13,2.88,22.94,8.65,29.44s14.47,9.75,26.13,9.75
			c6.47,0.15,12.83-1.61,18.31-5.06c3.9-2.55,7.15-5.98,9.48-10.02v13.61h27.05V156.3h-27.97V207.82z"/>
		<path id="Trazado_4" class="st1" d="M342.83,159.71c-6.38-3.87-13.92-5.8-22.63-5.8c-9.08,0-17.02,2.05-23.83,6.16
			c-6.84,4.15-12.41,10.1-16.1,17.2c-3.93,7.36-5.89,15.82-5.89,25.39c0,9.93,2.02,18.52,6.07,25.76c4,7.19,10.05,13.02,17.39,16.74
			c7.54,3.93,16.53,5.89,26.96,5.89c6.68-0.01,13.32-1.03,19.69-3.04c5.98-1.76,11.6-4.6,16.56-8.37l-7.36-18.77
			c-4.04,2.94-8.51,5.24-13.25,6.81c-4.68,1.58-9.59,2.39-14.54,2.39c-8.47,0-14.75-2.33-18.86-6.99
			c-3.45-3.91-5.43-9.88-5.99-17.85h61.64v-4.04c0-9.69-1.72-18.06-5.15-25.12C354.36,169.3,349.24,163.6,342.83,159.71z
			 M320.94,173.41c5.89,0,10.4,1.99,13.52,5.98c2.32,2.95,3.74,6.97,4.27,12.05h-37.12c0.6-4.02,2.15-7.83,4.51-11.13
			C309.62,175.71,314.56,173.41,320.94,173.41z"/>
		<path id="Trazado_5" class="st1" d="M428.57,194.75l-15.64-3.5c-3.93-0.98-6.66-2.08-8.19-3.31c-1.52-1.19-2.37-3.04-2.3-4.97
			c-0.04-2.75,1.45-5.3,3.86-6.62c2.58-1.59,6.13-2.39,10.67-2.39c4.92,0.05,9.81,0.92,14.44,2.58c5.2,1.84,10.12,4.37,14.63,7.54
			l7.73-18.58c-5.23-3.72-11-6.6-17.11-8.56c-6.3-2.03-12.88-3.06-19.5-3.04c-7.18-0.15-14.32,1.17-20.98,3.87
			c-5.54,2.22-10.4,5.87-14.08,10.58c-3.35,4.41-5.13,9.82-5.06,15.36c0,7.11,2.12,12.82,6.35,17.11s10.89,7.36,19.96,9.2
			l15.27,3.68c4.66,1.1,7.91,2.3,9.75,3.59c1.8,1.21,2.84,3.26,2.76,5.43c0.02,2.68-1.48,5.13-3.86,6.35
			c-2.58,1.53-6.26,2.3-11.04,2.3c-6.21-0.01-12.39-0.97-18.31-2.85c-5.9-1.81-11.46-4.58-16.47-8.19l-7.54,19.32
			c10.3,7.61,24.35,11.41,42.14,11.41c12.39,0,22.11-2.58,29.16-7.73c6.85-4.75,10.83-12.64,10.58-20.98
			c0-7.36-2.15-13.25-6.44-17.66S438.14,196.96,428.57,194.75z"/>
		<path id="Trazado_6" class="st1" d="M506.96,125.39l-27.78,9.02v21.9h-17.66v20.78h17.66v36.8c0,11.65,3.04,20.76,9.11,27.32
			c6.07,6.56,14.87,9.84,26.4,9.84c2.77,0.01,5.54-0.17,8.28-0.55c2.64-0.38,5.24-1.06,7.73-2.02v-21.35
			c-1.84,0.37-3.47,0.64-4.88,0.83c-1.43,0.19-2.88,0.28-4.32,0.28c-2.46,0.02-4.9-0.45-7.18-1.38c-2.24-0.95-4.11-2.59-5.34-4.69
			c-1.47-2.7-2.17-5.76-2.02-8.83v-36.25h23.74V156.3h-23.74V125.39z"/>
		<path id="Trazado_7" class="st1" d="M599.14,154.09c-6.89-0.08-13.61,2.2-19.04,6.44c-3.95,3.09-6.94,7.23-8.65,11.94l-1.93-16.17
			h-26.13c0.61,4.42,1.01,8.86,1.2,13.34c0.19,4.48,0.28,8.92,0.28,13.34v66.61h27.78v-48.76c-0.11-4.18,0.8-8.32,2.66-12.06
			c1.7-3.29,4.32-6.01,7.54-7.82c3.25-1.84,7.39-2.76,12.42-2.76c4.71,0.04,9.36,1.11,13.62,3.13l0.18-25.39
			c-1.4-0.54-2.85-0.97-4.32-1.29C602.91,154.25,601.03,154.07,599.14,154.09z"/>
		<path id="Trazado_8" class="st1" d="M688.74,159.89c-7.36-3.98-15.95-5.98-25.76-5.98c-10.06,0-18.77,1.99-26.13,5.98
			c-7.19,3.83-13.11,9.68-17.01,16.84c-3.99,7.24-5.98,15.83-5.98,25.76c0,9.93,1.99,18.55,5.98,25.85
			c3.87,7.18,9.79,13.05,17.02,16.84c7.36,3.93,16.07,5.89,26.13,5.89c9.81,0,18.4-1.96,25.76-5.89
			c7.22-3.79,13.15-9.65,17.02-16.84c3.99-7.3,5.98-15.91,5.98-25.85c0-9.94-1.99-18.53-5.98-25.76
			C701.86,169.57,695.94,163.71,688.74,159.89z M678.62,223.19c-3.68,4.48-8.89,6.72-15.64,6.72c-6.99,0-12.33-2.24-16.01-6.72
			c-3.68-4.48-5.52-11.38-5.52-20.7c0-9.2,1.87-16.04,5.61-20.52c3.74-4.48,9.05-6.72,15.92-6.72c6.75,0,11.96,2.24,15.64,6.72
			c3.68,4.48,5.52,11.32,5.52,20.52C684.14,211.81,682.3,218.71,678.62,223.19L678.62,223.19z"/>
		<path id="Trazado_9" class="st1" d="M845.14,159.71c-6.38-3.87-13.92-5.8-22.63-5.8c-9.08,0-17.02,2.05-23.83,6.16
			c-6.84,4.15-12.41,10.1-16.1,17.2c-3.93,7.36-5.89,15.82-5.89,25.39c0,9.93,2.02,18.52,6.07,25.76c4,7.19,10.05,13.02,17.39,16.74
			c7.54,3.93,16.53,5.89,26.96,5.89c6.68-0.01,13.32-1.03,19.69-3.04c5.98-1.76,11.6-4.6,16.56-8.37L856,220.88
			c-4.04,2.94-8.51,5.24-13.25,6.81c-4.68,1.58-9.59,2.39-14.54,2.39c-8.47,0-14.75-2.33-18.86-6.99
			c-3.45-3.91-5.43-9.88-5.98-17.85h61.64v-4.04c0-9.69-1.72-18.06-5.15-25.12C856.67,169.3,851.55,163.6,845.14,159.71z
			 M823.25,173.41c5.89,0,10.4,1.99,13.52,5.98c2.32,2.95,3.74,6.97,4.27,12.05h-37.12c0.6-4.02,2.15-7.83,4.51-11.13
			C811.93,175.71,816.87,173.41,823.25,173.41z"/>
		<path id="Trazado_10" class="st1" d="M949.51,171.26c-2.29-4.88-5.95-8.99-10.53-11.83c-5.95-3.73-12.85-5.65-19.87-5.52
			c-7.6-0.14-15.07,2-21.44,6.16c-6.36,4.3-11.39,10.29-14.54,17.3c-3.5,7.42-5.24,15.98-5.24,25.67c0,9.69,1.72,18.15,5.15,25.39
			c3.12,6.87,8.17,12.69,14.54,16.74c6.46,3.98,13.94,6.03,21.53,5.89c6.99,0.13,13.88-1.72,19.87-5.34
			c3.78-2.29,6.94-5.46,9.2-9.25v52.86h27.78V182.98c0-4.42,0.12-8.86,0.37-13.34c0.25-4.48,0.67-8.92,1.29-13.34h-26.13
			L949.51,171.26z M942.94,222.91c-3.74,4.66-8.99,6.99-15.73,6.99c-6.99,0-12.36-2.3-16.1-6.9c-3.74-4.6-5.61-11.25-5.61-19.96
			c0-8.71,1.93-15.52,5.8-20.42c3.87-4.91,9.17-7.36,15.92-7.36c6.75,0,11.99,2.36,15.73,7.08c3.74,4.72,5.61,11.5,5.61,20.33
			C948.55,211.5,946.68,218.24,942.94,222.91z"/>
		<path id="Trazado_11" class="st1" d="M1059.5,207.82c0,6.5-1.78,11.72-5.34,15.64c-3.5,3.9-8.56,6.06-13.8,5.89
			c-5.03,0-8.74-1.38-11.13-4.14c-2.39-2.76-3.59-7.02-3.59-12.79V156.3h-27.78v55.57c0,13.13,2.88,22.94,8.65,29.44
			s14.47,9.75,26.13,9.75c6.47,0.15,12.83-1.61,18.31-5.06c3.9-2.55,7.15-5.98,9.48-10.02v13.61h27.05V156.3h-27.97V207.82z"/>
		<rect id="Rectángulo_4" x="1108.81" y="112.51" class="st1" width="29.99" height="26.13"/>
		<rect id="Rectángulo_5" x="1109.91" y="156.3" class="st1" width="27.78" height="93.29"/>
		<path id="Trazado_12" class="st1" d="M1238.8,160.07c-6.37-4.16-13.84-6.31-21.44-6.16c-7.05-0.15-13.99,1.76-19.96,5.52
			c-4.78,2.98-8.51,7.37-10.66,12.57l-1.76-15.7h-26.13c0.61,4.42,1.01,8.86,1.2,13.34c0.19,4.48,0.28,8.92,0.28,13.34v106.35h27.78
			v-53.31c2.2,3.99,5.4,7.34,9.29,9.71c6.01,3.64,12.94,5.49,19.96,5.34c7.57,0.15,15.01-1.89,21.44-5.89
			c6.35-4.1,11.42-9.9,14.63-16.74c3.56-7.24,5.33-15.7,5.34-25.39c0-9.69-1.78-18.25-5.34-25.67
			C1250.23,170.37,1245.17,164.39,1238.8,160.07z M1225.28,223c-3.68,4.6-8.95,6.9-15.82,6.9c-6.99,0-12.33-2.33-16.01-6.99
			s-5.52-11.41-5.52-20.24s1.84-15.61,5.52-20.33s9.02-7.08,16.01-7.08c6.75,0,11.99,2.45,15.73,7.36
			c3.74,4.91,5.61,11.71,5.61,20.42C1230.8,211.74,1228.96,218.4,1225.28,223z"/>
		<path id="Trazado_13" class="st1" d="M1363.92,176.72c-3.91-7.15-9.82-13.01-17.02-16.84c-7.36-3.99-15.94-5.98-25.76-5.98
			c-10.06,0-18.77,1.99-26.13,5.98c-7.2,3.83-13.11,9.68-17.02,16.84c-3.99,7.24-5.98,15.83-5.98,25.76
			c0,9.93,1.99,18.55,5.98,25.85c3.87,7.18,9.79,13.05,17.02,16.84c7.36,3.93,16.07,5.89,26.13,5.89c9.81,0,18.4-1.96,25.76-5.89
			c7.22-3.79,13.15-9.65,17.02-16.84c3.99-7.3,5.98-15.91,5.98-25.85C1369.9,192.54,1367.91,183.96,1363.92,176.72z M1336.78,223.18
			c-3.68,4.48-8.89,6.72-15.64,6.72c-6.99,0-12.33-2.24-16.01-6.72c-3.68-4.48-5.52-11.38-5.52-20.7c0-9.2,1.87-16.04,5.61-20.52
			c3.74-4.48,9.05-6.72,15.92-6.72c6.74,0,11.96,2.24,15.64,6.72c3.68,4.48,5.52,11.32,5.52,20.52
			C1342.3,211.81,1340.46,218.71,1336.78,223.18z"/>
	</g>
</g>
</svg>
