<?xml version="1.0" encoding="utf-8"?>
<!-- Generator: Adobe Illustrator 26.0.3, SVG Export Plug-In . SVG Version: 6.00 Build 0)  -->
<svg version="1.1" id="Layer_1" xmlns="http://www.w3.org/2000/svg" xmlns:xlink="http://www.w3.org/1999/xlink" x="0px" y="0px"
	 viewBox="0 0 1080 1080" style="enable-background:new 0 0 1080 1080;" xml:space="preserve">
<style type="text/css">
	.st0{fill:#FFFFFF;}
</style>
<g>
	<path class="st0" d="M810,0.2L669.9,0c-157.3,0-259,104.3-259,265.8v122.5H270.1c-12.2,0-22,9.9-22,22v177.6c0,12.2,9.9,22,22,22
		h140.8v448c0,12.2,9.9,22,22,22h183.7c12.2,0,22-9.9,22-22v-448h164.6c12.2,0,22-9.9,22-22l0.1-177.6c0-5.8-2.3-11.4-6.4-15.6
		s-9.7-6.5-15.6-6.5H638.7V284.5c0-49.9,11.9-75.3,76.9-75.3h94.3c12.2,0,22-9.9,22-22v-165C832,10.1,822.1,0.2,810,0.2z"/>
</g>
</svg>
