<?xml version="1.0" encoding="utf-8"?>
<!-- Generator: Adobe Illustrator 26.0.3, SVG Export Plug-In . SVG Version: 6.00 Build 0)  -->
<svg version="1.1" id="Layer_1" xmlns="http://www.w3.org/2000/svg" xmlns:xlink="http://www.w3.org/1999/xlink" x="0px" y="0px"
	 viewBox="0 0 1080 1080" style="enable-background:new 0 0 1080 1080;" xml:space="preserve">
<style type="text/css">
	.st0{fill:#56739B;}
</style>
<g>
	<path class="st0" d="M1077,317.5c-2.5-57.4-11.8-96.8-25.1-131c-13.7-36.3-34.8-68.8-62.5-95.8c-27-27.4-59.7-48.7-95.6-62.2
		c-34.4-13.3-73.6-22.6-131-25.1C705.1,0.6,686.7,0,540.1,0s-165,0.6-222.6,3.2c-57.4,2.5-96.8,11.8-131,25.1
		C150.2,42,117.7,63.1,90.7,90.7c-27.4,27-48.7,59.7-62.2,95.6c-13.3,34.4-22.6,73.6-25.1,131C0.6,375.1,0,393.5,0,540.1
		s0.6,165,3.2,222.6c2.5,57.4,11.8,96.8,25.1,131c13.7,36.3,35,68.8,62.4,95.8c27,27.4,59.7,48.7,95.6,62.2
		c34.4,13.3,73.6,22.6,131,25.1c57.6,2.5,76,3.2,222.6,3.2s165-0.6,222.6-3.2c57.4-2.5,96.8-11.8,131-25.1
		c72.6-28.1,130-85.4,158-158c13.3-34.4,22.6-73.6,25.1-131c2.5-57.6,3.2-76,3.2-222.6S1079.6,375.1,1077,317.5z M979.8,758.5
		c-2.3,52.7-11.2,81.2-18.6,100.2c-18.1,47.1-55.5,84.4-102.5,102.5c-19,7.4-47.7,16.2-100.2,18.6c-57,2.5-74,3.2-218.1,3.2
		s-161.4-0.6-218.2-3.2c-52.7-2.3-81.2-11.2-100.2-18.6c-23.4-8.7-44.7-22.4-62-40.3c-17.9-17.5-31.6-38.6-40.3-62
		c-7.4-19-16.2-47.7-18.6-100.2c-2.5-57-3.2-74.1-3.2-218.2s0.6-161.4,3.2-218.1c2.3-52.7,11.2-81.2,18.6-100.2
		c8.7-23.4,22.4-44.7,40.5-62c17.5-17.9,38.6-31.6,62-40.3c19-7.4,47.7-16.2,100.2-18.6c57-2.5,74.1-3.2,218.1-3.2
		c144.3,0,161.4,0.6,218.2,3.2c52.7,2.3,81.2,11.2,100.2,18.6c23.4,8.6,44.7,22.4,62,40.3c17.9,17.5,31.6,38.6,40.3,62
		c7.4,19,16.2,47.7,18.6,100.2c2.5,57,3.2,74,3.2,218.1S982.3,701.5,979.8,758.5z"/>
	<path class="st0" d="M540.1,262.7c-153.2,0-277.4,124.3-277.4,277.4S387,817.5,540.1,817.5c153.2,0,277.4-124.3,277.4-277.4
		S693.3,262.7,540.1,262.7z M540.1,720.1c-99.4,0-180-80.6-180-180s80.6-180,180-180s180,80.6,180,180S639.5,720.1,540.1,720.1z"/>
	<path class="st0" d="M893.3,251.7c0,35.8-29,64.8-64.8,64.8s-64.8-29-64.8-64.8s29-64.8,64.8-64.8S893.3,215.9,893.3,251.7z"/>
</g>
</svg>
