<?xml version="1.0" encoding="utf-8"?>
<!-- Generator: Adobe Illustrator 26.0.3, SVG Export Plug-In . SVG Version: 6.00 Build 0)  -->
<svg version="1.1" id="Layer_1" xmlns="http://www.w3.org/2000/svg" xmlns:xlink="http://www.w3.org/1999/xlink" x="0px" y="0px"
	 viewBox="0 0 1080 1080" style="enable-background:new 0 0 1080 1080;" xml:space="preserve">
<style type="text/css">
	.st0{fill:#FFFFFF;}
</style>
<g>
	<g>
		<g>
			<path class="st0" d="M540,0C313.2,0,128.7,184.5,128.7,411.3c0,146.4,44.5,205.1,258.6,487.3c37.2,49,79.3,104.5,127.4,168.7
				c6,8,15.4,12.7,25.3,12.7s19.3-4.7,25.3-12.7c47.9-63.9,89.8-119.2,126.8-168c214.5-283,259.2-341.9,259.2-488
				C951.3,184.5,766.8,0,540,0z M641.7,861.1c-30.4,40.1-64.1,84.5-101.7,134.6c-37.9-50.3-71.8-95-102.3-135.3
				C229.5,585.9,192,536.5,192,411.3c0-191.9,156.1-348,348-348s348,156.1,348,348C888,536.2,850.4,585.8,641.7,861.1z"/>
		</g>
	</g>
	<g>
		<g>
			<path class="st0" d="M540,189.8c-122.1,0-221.5,99.4-221.5,221.5S417.9,632.8,540,632.8s221.5-99.4,221.5-221.5
				S662.1,189.8,540,189.8z M540,569.5c-87.2,0-158.2-71-158.2-158.2s71-158.2,158.2-158.2s158.2,71,158.2,158.2
				S627.2,569.5,540,569.5z"/>
		</g>
	</g>
</g>
</svg>
