<?xml version="1.0" encoding="utf-8"?>
<!-- Generator: Adobe Illustrator 26.0.3, SVG Export Plug-In . SVG Version: 6.00 Build 0)  -->
<svg version="1.1" id="Layer_1" xmlns="http://www.w3.org/2000/svg" xmlns:xlink="http://www.w3.org/1999/xlink" x="0px" y="0px"
	 viewBox="0 0 200 200" style="enable-background:new 0 0 200 200;" xml:space="preserve">
<style type="text/css">
	.st0{fill-rule:evenodd;clip-rule:evenodd;fill:#FFFFFF;}
	.st1{fill:#FFFFFF;}
</style>
<g>
	<g>
		<g>
			<g>
				<g>
					<path class="st0" d="M148.4,78.5c-0.2,0-0.3-0.1-0.3-0.3c-3.7-9.3-12.5-14.7-27-9.2c-0.3,0.1-0.6-0.1-0.6-0.4
						c0.1-11.1-6.7-25.2-8-32.6c-0.1-0.5-0.7-0.5-0.9-0.1c-2.3,6.2-3.8,10.2-4.5,16c-0.7,5.4,1.2,6.1-0.6,10.5
						c-3.7,9.6,2.9,14-1.1,14.8c-1.4,0.3-6.8-8.2-20-12.2c0,0-0.1,0-0.1,0C74.8,59.1,72.4,53.7,65,50.2
						c-9.1-4.3-16.7-11.4-22.4-18.5c-0.6-0.7-1.7-0.1-1.4,0.8c1,2.5,16.1,36.5,18.9,42.2c5.3,10.6,5.2,9.7,9.9,16.2
						c5.6,7.7,12.4,13.6,13,14c0.2,0.1,0.3,0.4,0.2,0.6c-1.9,4.4-3.6,6.8-5.5,11.2c-3.5,8.3-4.2,12.9-7,18.1
						C64.6,146,52.4,159,40.9,169c-0.4,0.4,0,1,0.5,0.8c24-13,27.1-23.1,32.4-24.7c0.3-0.1,0.6,0.1,0.6,0.4
						c-0.3,3.8-0.6,5.7-1.8,8.8c-0.2,0.5,0.4,0.9,0.7,0.5c6.3-6.8,14.4-17.2,21-21.8c4.3-3,7.7-3.2,12.2-5.2
						c26.3-11.4,16.5-23.7,28.6-35.9c4.7-4.7,5.8-3.8,12.4-7.7c0.1,0,0.2,0,0.2-0.1c2.1-0.4,7.4-1.3,12.5-2.3
						C160.3,81.9,153.1,79.9,148.4,78.5z"/>
				</g>
			</g>
		</g>
	</g>
</g>
<g>
	<path class="st1" d="M108,190.9c-1.2,0.1-2.3,0.1-3.4,0c-1-0.1-2-0.4-2.8-0.8c-0.9-0.4-1.7-0.9-2.5-1.6l0.6-1.2
		c1.2,1,2.5,1.6,3.7,2c1.2,0.3,2.7,0.4,4.3,0.3c2.1-0.2,3.6-0.8,4.7-1.7c1.1-1,1.5-2.3,1.4-3.9c-0.1-1-0.5-1.8-1.1-2.3
		c-0.7-0.5-1.5-0.9-2.5-1.1c-1-0.2-2-0.4-3.1-0.6c-0.9-0.1-1.9-0.3-2.9-0.5c-1-0.2-1.9-0.5-2.8-0.8c-0.9-0.4-1.6-0.9-2.2-1.6
		c-0.6-0.7-0.9-1.6-1-2.8c-0.1-1.3,0.1-2.4,0.7-3.5c0.6-1,1.4-1.9,2.6-2.5c1.2-0.6,2.6-1,4.2-1.2c1-0.1,2-0.1,3,0.1
		c1,0.1,1.9,0.4,2.7,0.8s1.6,0.9,2.4,1.6l-0.6,1.2c-1.2-0.9-2.3-1.6-3.5-2c-1.2-0.4-2.5-0.5-3.8-0.4c-2.1,0.2-3.7,0.8-4.8,1.8
		c-1.1,1-1.6,2.3-1.4,3.9c0.1,1,0.4,1.8,1,2.4c0.6,0.6,1.4,1,2.3,1.3c0.9,0.3,1.9,0.5,2.9,0.6c1,0.2,2,0.3,3,0.5
		c1.1,0.2,2,0.4,3,0.7c0.9,0.3,1.7,0.8,2.3,1.5c0.6,0.7,1,1.6,1.1,2.8c0.1,1.2-0.1,2.4-0.7,3.3c-0.6,1-1.4,1.8-2.6,2.4
		C110.9,190.4,109.6,190.8,108,190.9z"/>
	<path class="st1" d="M119.2,169.9l-1.2,0.3l1.5-7.2l2-0.5L119.2,169.9z M122.7,188.1l-4.2-15.8l1.3-0.3l4.2,15.8L122.7,188.1z"/>
	<path class="st1" d="M141.3,189.2c-2.2,1-4.4,1.3-6.5,1l-0.3-1.3c1.2,0.1,2.3,0.2,3.2,0c0.9-0.1,1.9-0.4,3.1-0.9
		c1.5-0.7,2.5-1.7,2.9-2.9c0.4-1.2,0.2-2.7-0.5-4.3l-2-4.4l0-0.9c0.2,1,0.2,2,0,2.9c-0.2,0.9-0.6,1.6-1.2,2.3
		c-0.6,0.7-1.4,1.2-2.4,1.7c-1.3,0.6-2.6,0.8-3.9,0.7c-1.3-0.2-2.5-0.7-3.5-1.5c-1.1-0.9-1.9-2-2.6-3.5c-0.7-1.5-1-2.9-0.9-4.3
		c0-1.4,0.4-2.6,1.2-3.7c0.7-1.1,1.8-1.9,3.1-2.5c1.5-0.7,2.9-0.9,4.2-0.6c1.3,0.3,2.4,1,3.4,2.2l-0.7-0.5l-1.5-3.2l1.2-0.6
		l6.9,15.1c1,2.1,1.2,4,0.7,5.5C144.5,187.1,143.2,188.3,141.3,189.2z M136.9,181.2c1.6-0.8,2.7-1.9,3.1-3.4
		c0.4-1.5,0.2-3.3-0.7-5.2c-0.9-1.9-2-3.2-3.5-3.9c-1.4-0.7-3-0.6-4.6,0.1c-1.6,0.8-2.7,1.9-3.2,3.4c-0.5,1.5-0.2,3.3,0.6,5.2
		c0.9,1.9,2.1,3.2,3.5,3.9C133.7,182,135.2,181.9,136.9,181.2z"/>
	<path class="st1" d="M156.7,171.5c-1.5,1.2-2.9,1.7-4.4,1.5c-1.4-0.2-2.8-1.1-4.1-2.7l-6.5-8.1l1-0.8l6.4,8
		c1.1,1.4,2.2,2.1,3.2,2.3s2.2-0.2,3.3-1.1c1.3-1.1,2.1-2.4,2.2-3.9s-0.4-2.9-1.5-4.3l-5.8-7.3l1-0.8l10.3,12.8l-1,0.8l-2.3-2.9
		l0.1-0.5c0.5,1.4,0.6,2.7,0.2,3.9C158.5,169.6,157.7,170.7,156.7,171.5z"/>
	<path class="st1" d="M174.6,149c0.1,1,0,2-0.3,3.2c-0.3,1.1-0.9,2.2-1.6,3.1c-1,1.3-2.1,2.2-3.4,2.7c-1.3,0.5-2.6,0.6-4,0.4
		c-1.4-0.3-2.8-0.9-4.2-2c-1.3-1-2.3-2.2-3-3.5c-0.6-1.3-0.9-2.6-0.7-3.9c0.1-1.3,0.7-2.6,1.6-3.8c0.9-1.1,1.8-1.9,2.9-2.3
		c1.1-0.4,2.3-0.5,3.5-0.2c1.3,0.3,2.5,0.9,3.8,2l0.3,0.2l-8,10.4l-1.1-0.8l7.6-9.8l0.7,1.3c-1.7-1.4-3.3-2.1-4.9-2.1
		c-1.5,0-2.8,0.7-3.9,2.1c-1.1,1.5-1.5,3.1-1.2,4.7s1.5,3.1,3.2,4.5c1.8,1.4,3.5,2,5.2,1.9s3.1-0.9,4.3-2.5c0.6-0.8,1.1-1.7,1.4-2.6
		c0.3-0.9,0.4-1.9,0.3-3.1L174.6,149z"/>
	<path class="st1" d="M180.4,143.1l-10.8-4.9c-0.7-0.3-1.4-0.6-2.1-0.9c-0.7-0.3-1.4-0.5-2.1-0.7l0.5-1.2l3.3,1.2l0.2,0.4
		c-1.1-0.9-1.8-2-2-3.3c-0.2-1.3,0-2.6,0.6-3.9c1.6-3.6,4.3-4.6,8.1-2.9l9.6,4.3l-0.6,1.3l-9.5-4.3c-1.6-0.7-2.9-0.9-3.9-0.6
		c-1,0.3-1.9,1.2-2.5,2.6c-0.7,1.6-0.8,3.1-0.3,4.5c0.5,1.4,1.6,2.5,3.3,3.2l8.7,3.9L180.4,143.1z"/>
	<path class="st1" d="M189.8,116.4c-0.3,1.4-0.8,2.6-1.7,3.6c-0.9,0.9-2,1.6-3.4,2c-1.4,0.4-2.9,0.4-4.6,0.1
		c-1.7-0.3-3.1-0.9-4.2-1.7s-2-1.8-2.5-3c-0.5-1.2-0.6-2.5-0.3-4c0.3-1.4,0.8-2.6,1.7-3.6c0.9-0.9,2-1.6,3.4-2
		c1.4-0.4,2.9-0.4,4.6-0.1c1.7,0.3,3.1,0.9,4.3,1.7c1.1,0.8,2,1.8,2.5,3C189.9,113.7,190,115,189.8,116.4z M188.5,116.2
		c0.3-1.8,0-3.3-1-4.6c-1-1.2-2.7-2-5-2.5c-2.2-0.4-4-0.2-5.4,0.6c-1.4,0.8-2.3,2.1-2.6,3.8c-0.3,1.8,0,3.3,1.1,4.5
		c1.1,1.2,2.7,2.1,4.9,2.5c2.3,0.4,4.1,0.2,5.5-0.5C187.3,119.3,188.1,118,188.5,116.2z"/>
	<path class="st1" d="M191.2,96.2c0.1,2.6-0.5,4.6-2,6.2l-1.2-0.6c0.7-0.9,1.2-1.8,1.4-2.6s0.4-1.9,0.3-3c-0.1-1.5-0.4-2.6-0.9-3.3
		c-0.5-0.7-1.3-1.1-2.3-1c-0.8,0-1.4,0.3-1.8,0.8c-0.4,0.5-0.8,1.3-1,2.5l-0.5,2.8c-0.2,1.3-0.7,2.3-1.5,3.1s-1.6,1.2-2.6,1.2
		c-0.9,0-1.8-0.2-2.5-0.6c-0.7-0.5-1.3-1.1-1.7-2c-0.4-0.9-0.7-1.9-0.7-3.1c0-1.1,0.1-2.2,0.4-3.2c0.3-1,0.8-1.8,1.5-2.5l1.2,0.6
		c-0.6,0.8-1.1,1.6-1.4,2.3c-0.3,0.8-0.4,1.7-0.4,2.6c0.1,1.4,0.4,2.4,1,3.2c0.6,0.7,1.4,1.1,2.3,1c0.8,0,1.5-0.3,2-0.8
		s0.8-1.3,1-2.3l0.6-2.8c0.3-1.5,0.7-2.6,1.4-3.3c0.7-0.8,1.6-1.1,2.6-1.2c1.3-0.1,2.4,0.4,3.3,1.5
		C190.6,92.8,191.1,94.3,191.2,96.2z"/>
</g>
</svg>
