<?xml version="1.0" encoding="utf-8"?>
<!-- Generator: Adobe Illustrator 26.0.3, SVG Export Plug-In . SVG Version: 6.00 Build 0)  -->
<svg version="1.1" id="Capa_1" xmlns="http://www.w3.org/2000/svg" xmlns:xlink="http://www.w3.org/1999/xlink" x="0px" y="0px"
	 viewBox="0 0 1350.4 144.1" style="enable-background:new 0 0 1350.4 144.1;" xml:space="preserve">
<style type="text/css">
	.st0{fill:none;stroke:#FFFFFF;stroke-width:2;stroke-miterlimit:10;}
</style>
<g>
	<path class="st0" d="M5.7,111.6V3.8h14.5l62.1,80.7l-4.1,2.1V3.8h18.3v107.8H81.8L20,31.2l3.9-2.4v82.8H5.7z"/>
	<path class="st0" d="M164.4,112.8c-14.8,0-26.1-3.8-33.7-11.4c-7.6-7.6-11.4-18.7-11.4-33.4V3.8h19.1V69c0,9.3,2.2,16.3,6.6,21.1
		c4.4,4.8,10.9,7.2,19.4,7.2c8.3,0,14.6-2.4,19-7.3c4.4-4.8,6.6-11.9,6.6-21V3.8h19.4V68c0,14.6-3.9,25.8-11.6,33.4
		C190.1,109,178.9,112.8,164.4,112.8z"/>
	<path class="st0" d="M231.9,111.6V3.8h72v15.3h-53v30h49.9v15.4H251v31.8h53v15.3H231.9z"/>
	<path class="st0" d="M356.9,112.8c-5.5,0-10.8-0.5-15.9-1.4c-5-1-9.8-2.4-14.2-4.3c-4.4-1.9-8.2-4.2-11.6-7l6.5-14.2
		c5.4,4,11,7,16.6,8.8c5.6,1.8,11.9,2.7,18.6,2.7c7.5,0,13.2-1.3,17.3-3.9c4.1-2.6,6.1-6.3,6.1-11c0-2.8-0.9-5.2-2.7-7
		c-1.8-1.9-4.5-3.5-8.2-4.8c-3.6-1.3-8.1-2.6-13.5-3.8c-6.4-1.2-12-2.7-16.8-4.5c-4.8-1.8-8.9-3.9-12.1-6.3
		c-3.2-2.4-5.7-5.3-7.3-8.7c-1.7-3.4-2.5-7.4-2.5-12c0-6.4,1.7-12,5.1-17c3.4-4.9,8.2-8.8,14.5-11.6c6.2-2.8,13.5-4.2,21.9-4.2
		c5,0,10,0.5,14.8,1.5c4.8,1,9.2,2.4,13.2,4.3c4,1.9,7.5,4.2,10.4,6.9l-6.7,14.2c-4.8-3.9-9.9-6.8-15.1-8.7
		C370.3,19,364.8,18,359,18c-7,0-12.5,1.4-16.5,4.2c-4,2.8-6.1,6.8-6.1,11.8c0,2.9,0.8,5.3,2.5,7.3c1.7,1.9,4.2,3.5,7.7,4.8
		c3.5,1.3,7.9,2.6,13.4,3.9c6.3,1.3,11.8,2.8,16.7,4.5c4.9,1.7,9.1,3.8,12.5,6.1c3.4,2.4,6,5.2,7.8,8.5c1.8,3.3,2.6,7.2,2.6,11.7
		c0,6.5-1.7,12.1-5.1,16.9c-3.4,4.8-8.3,8.5-14.8,11C373.4,111.5,365.8,112.8,356.9,112.8z"/>
	<path class="st0" d="M441.1,111.6V19.8H406v-16h89.9v16h-35.1v91.7H441.1z"/>
	<path class="st0" d="M509.3,111.6V3.8h46.2c12.2,0,21.5,2.7,27.8,8c6.4,5.3,9.5,13,9.5,23c0,9.5-3.3,17-9.8,22.6
		c-6.6,5.6-15.7,8.4-27.4,8.4l12.1-2.4c3.7,0,7.1,1.1,10,3.3c2.9,2.2,5.2,5.7,7,10.3l13.3,34.5h-20.6l-13.6-35.9
		c-1.4-3.5-3.4-5.9-6-7.1c-2.6-1.2-5.8-1.8-9.6-1.8h-19.7v44.8H509.3z M528.4,51.6h24.4c7.5,0,12.9-1.4,16.3-4.1
		c3.4-2.7,5.1-6.8,5.1-12.3c0-5.5-1.7-9.6-5.1-12.3c-3.4-2.6-8.9-3.9-16.3-3.9h-24.4V51.6z"/>
	<path class="st0" d="M662.6,112.8c-10.5,0-19.6-2.2-27.2-6.7c-7.7-4.4-13.6-10.8-17.7-19.1c-4.1-8.3-6.2-18.1-6.2-29.4
		c0-11.4,2.1-21.2,6.2-29.4c4.1-8.2,10-14.6,17.7-19c7.7-4.4,16.7-6.7,27.2-6.7c10.6,0,19.7,2.2,27.4,6.7c7.7,4.4,13.6,10.8,17.7,19
		c4.1,8.2,6.2,18,6.2,29.3c0,11.4-2.1,21.2-6.3,29.5c-4.2,8.3-10.1,14.6-17.7,19.1C682.3,110.5,673.2,112.8,662.6,112.8z
		 M662.6,97.3c9.9,0,17.7-3.4,23.3-10.2c5.6-6.8,8.5-16.7,8.5-29.6c0-12.9-2.8-22.7-8.5-29.4c-5.7-6.7-13.4-10.1-23.3-10.1
		c-9.8,0-17.5,3.4-23.2,10.1c-5.7,6.7-8.5,16.5-8.5,29.4c0,12.9,2.8,22.8,8.5,29.6C645.1,93.9,652.8,97.3,662.6,97.3z"/>
	<path class="st0" d="M775.4,111.6V3.8h72v15.3h-53v30h49.9v15.4h-49.9v31.8h53v15.3H775.4z"/>
	<path class="st0" d="M913,112.8c-10.5,0-19.6-2.2-27.2-6.7C878,101.7,872.1,95.3,868,87c-4.1-8.3-6.2-18.1-6.2-29.4
		c0-11.4,2.1-21.2,6.2-29.4c4.1-8.2,10-14.6,17.7-19c7.7-4.4,16.7-6.7,27.2-6.7c10.6,0,19.7,2.2,27.4,6.7c7.7,4.4,13.6,10.8,17.7,19
		c4.1,8.2,6.2,18,6.2,29.3c0,11.4-2.1,21.2-6.3,29.5c-4.2,8.3-10.1,14.6-17.7,19.1C932.6,110.5,923.5,112.8,913,112.8z M913,97.3
		c9.9,0,17.7-3.4,23.3-10.2c5.6-6.8,8.5-16.7,8.5-29.6c0-12.9-2.8-22.7-8.5-29.4C930.6,21.4,922.8,18,913,18
		c-9.8,0-17.5,3.4-23.2,10.1c-5.7,6.7-8.5,16.5-8.5,29.4c0,12.9,2.8,22.8,8.5,29.6C895.4,93.9,903.2,97.3,913,97.3z M942.3,140.5
		c-5-3.5-9.7-7.8-14.1-12.8c-4.3-5-8.1-10.2-11.2-15.5l17.4-6.8c2.5,5.1,5.7,9.7,9.5,13.7c3.8,4,7.6,7.6,11.6,11L942.3,140.5z"/>
	<path class="st0" d="M1028.7,112.8c-14.8,0-26.1-3.8-33.7-11.4c-7.6-7.6-11.4-18.7-11.4-33.4V3.8h19.1V69c0,9.3,2.2,16.3,6.6,21.1
		c4.4,4.8,10.9,7.2,19.4,7.2c8.3,0,14.6-2.4,19-7.3c4.4-4.8,6.6-11.9,6.6-21V3.8h19.4V68c0,14.6-3.9,25.8-11.6,33.4
		C1054.4,109,1043.3,112.8,1028.7,112.8z"/>
	<path class="st0" d="M1096.2,111.6V3.8h19.5v107.8H1096.2z"/>
	<path class="st0" d="M1139.2,111.6V3.8h46.8c11.7,0,20.8,2.8,27.2,8.4c6.4,5.6,9.6,13.2,9.6,22.9c0,9.6-3.3,17.2-9.8,22.9
		c-6.5,5.7-15.5,8.5-27,8.5h-27.2v45.1H1139.2z M1158.7,51.5h25c6.9,0,12-1.4,15.4-4.2c3.4-2.8,5.1-6.8,5.1-12c0-5.2-1.7-9.3-5-12
		c-3.3-2.8-8.5-4.2-15.4-4.2h-25V51.5z"/>
	<path class="st0" d="M1287.4,112.8c-10.5,0-19.6-2.2-27.2-6.7c-7.7-4.4-13.6-10.8-17.7-19.1c-4.1-8.3-6.2-18.1-6.2-29.4
		c0-11.4,2.1-21.2,6.2-29.4c4.1-8.2,10-14.6,17.7-19c7.7-4.4,16.7-6.7,27.2-6.7c10.6,0,19.7,2.2,27.4,6.7c7.7,4.4,13.6,10.8,17.7,19
		c4.1,8.2,6.2,18,6.2,29.3c0,11.4-2.1,21.2-6.3,29.5c-4.2,8.3-10.1,14.6-17.7,19.1C1307.1,110.5,1298,112.8,1287.4,112.8z
		 M1287.4,97.3c9.9,0,17.7-3.4,23.3-10.2c5.6-6.8,8.5-16.7,8.5-29.6c0-12.9-2.8-22.7-8.5-29.4c-5.7-6.7-13.4-10.1-23.3-10.1
		c-9.8,0-17.5,3.4-23.2,10.1c-5.7,6.7-8.5,16.5-8.5,29.4c0,12.9,2.8,22.8,8.5,29.6C1269.9,93.9,1277.6,97.3,1287.4,97.3z"/>
</g>
</svg>
