<?xml version="1.0" encoding="utf-8"?>
<!-- Generator: Adobe Illustrator 26.0.3, SVG Export Plug-In . SVG Version: 6.00 Build 0)  -->
<svg version="1.1" id="Layer_1" xmlns="http://www.w3.org/2000/svg" xmlns:xlink="http://www.w3.org/1999/xlink" x="0px" y="0px"
	 viewBox="0 0 1738.7 195" style="enable-background:new 0 0 1738.7 195;" xml:space="preserve">
<style type="text/css">
	.st0{fill:none;stroke:#FFFFFF;stroke-width:2;}
</style>
<g>
	<polygon class="st0" points="91.5,98.5 22.4,10.3 0,10.3 0,149 28.4,149 28.4,60.7 97.5,149 120.1,149 120.1,10.3 91.5,10.3 	"/>
	<path class="st0" d="M236.4,93.1c0,11-2.5,19.5-7.6,25.3c-5.1,5.8-12.3,8.8-21.8,8.8c-9.9,0-17.3-2.9-22.4-8.8
		c-5.1-5.8-7.6-14.3-7.6-25.3V10.3h-29.6v81.4c0,19.3,5,34,15.1,44c10.1,10,24.9,15,44.5,15c19.2,0,33.9-5,44.2-15.1
		c10.3-10.1,15.4-24.7,15.4-43.9V10.3h-30.2V93.1z"/>
	<polygon class="st0" points="293.2,149 388.8,149 388.8,125.4 323,125.4 323,90.4 384.7,90.4 384.7,66.6 323,66.6 323,33.9 
		388.8,33.9 388.8,10.3 293.2,10.3 	"/>
	<path class="st0" d="M501.9,82.9c-4.1-3.2-9.3-6-15.7-8.5c-6.4-2.5-13.9-4.6-22.6-6.4c-7.4-1.7-13.2-3.3-17.4-5
		c-4.2-1.6-7.2-3.5-9.1-5.5c-1.8-2.1-2.7-4.6-2.7-7.6c0-5.5,2.3-9.8,7-12.9c4.7-3.2,11-4.8,18.9-4.8c7,0,13.9,1.2,20.6,3.5
		c6.7,2.3,13.2,5.9,19.5,10.7l9.7-21.8c-3.6-3.4-8.1-6.2-13.4-8.6c-5.3-2.3-11.1-4.2-17.4-5.5c-6.3-1.3-12.8-1.9-19.4-1.9
		c-11,0-20.7,1.9-28.9,5.6c-8.2,3.8-14.7,8.9-19.3,15.5c-4.6,6.6-6.9,13.9-6.9,22.1c0,5.7,0.9,10.7,2.7,15.1
		c1.8,4.3,4.7,8.1,8.7,11.4c4,3.2,9.1,6.1,15.5,8.6c6.4,2.5,14,4.6,23,6.4c7.1,1.6,12.9,3.1,17.1,4.7c4.3,1.6,7.4,3.4,9.3,5.5
		c1.9,2.1,2.9,4.6,2.9,7.6c0,5.1-2.4,9-7.1,11.9c-4.7,2.9-11.5,4.3-20.3,4.3c-8.2,0-16-1.2-23.4-3.5c-7.4-2.3-14.5-5.9-21.4-10.7
		l-9.9,21.8c4.3,3.4,9.3,6.3,15.2,8.7c5.8,2.4,12.1,4.2,18.8,5.5c6.7,1.2,13.5,1.9,20.5,1.9c12.1,0,22.4-1.7,31-5.2
		c8.6-3.4,15.1-8.3,19.7-14.6c4.5-6.3,6.8-13.8,6.8-22.5c0-5.5-1-10.3-2.9-14.5C509,89.8,505.9,86.1,501.9,82.9z"/>
	<polygon class="st0" points="521.4,35.1 564.8,35.1 564.8,149 595.6,149 595.6,35.1 639,35.1 639,10.3 521.4,10.3 	"/>
	<path class="st0" d="M746.4,92.9c-2.6-1.9-5.4-3.2-8.5-3.8c6-1.9,11.1-4.7,15.4-8.4c8.6-7.5,12.9-17.4,12.9-29.7
		c0-13-4.2-23-12.5-30.1c-8.3-7.1-20.6-10.6-36.8-10.6h-61.7V149h30V93.1h19.7c4,0,7.6,0.7,10.7,2c3.1,1.4,5.4,3.9,6.8,7.7
		l17.7,46.1h32.1l-16.7-43C753.2,100.1,750.2,95.8,746.4,92.9z M712.4,69.9H685V33.7h27.5c8.8,0,15.2,1.5,19.2,4.4
		c4,2.9,5.9,7.5,5.9,13.7c0,6.1-2,10.6-6,13.6C727.5,68.4,721.1,69.9,712.4,69.9z"/>
	<path class="st0" d="M891.7,17.3c-10.1-5.8-22-8.7-35.9-8.7c-13.9,0-25.9,2.9-36,8.7c-10.1,5.8-17.9,14-23.5,24.6
		c-5.5,10.6-8.3,23.2-8.3,37.6c0,14.5,2.8,27.1,8.3,37.8c5.5,10.6,13.3,18.9,23.5,24.7c10.1,5.8,22.1,8.8,36,8.8
		c13.9,0,25.9-2.9,35.9-8.8c10.1-5.8,17.8-14.1,23.3-24.7c5.5-10.6,8.2-23.2,8.2-37.8c0-14.4-2.7-26.9-8.2-37.6S901.7,23,891.7,17.3
		z M882.9,115c-6.7,8.1-15.7,12.2-27.2,12.2c-11.6,0-20.6-4-27.3-12.1c-6.6-8-9.9-19.9-9.9-35.6c0-15.6,3.3-27.4,9.9-35.3
		c6.6-8,15.7-12,27.3-12c11.4,0,20.5,4,27.2,12c6.7,8,10,19.8,10,35.3S889.6,106.9,882.9,115z"/>
	<polygon class="st0" points="1001.6,149 1097.2,149 1097.2,125.4 1031.4,125.4 1031.4,90.4 1093.1,90.4 1093.1,66.6 1031.4,66.6 
		1031.4,33.9 1097.2,33.9 1097.2,10.3 1001.6,10.3 	"/>
	<path class="st0" d="M1217.8,17.3c-10.1-5.8-22-8.7-35.9-8.7c-13.9,0-25.9,2.9-36,8.7c-10.1,5.8-17.9,14-23.5,24.6
		c-5.5,10.6-8.3,23.2-8.3,37.6c0,14.5,2.8,27.1,8.3,37.8c5.5,10.6,13.3,18.9,23.5,24.7c10.1,5.8,22.1,8.8,36,8.8
		c1.6,0,3.2,0,4.8-0.1c3.9,6.6,8.6,12.9,14,19c5.6,6.4,12,11.9,19,16.6l20.4-15.4c-5.1-4.3-10.1-9-15.1-14.1c-3.9-4-7.2-8.4-10-13.2
		c0.9-0.5,1.9-1,2.8-1.5c10.1-5.8,17.8-14.1,23.3-24.7c5.5-10.6,8.2-23.2,8.2-37.8c0-14.4-2.7-26.9-8.2-37.6
		C1235.6,31.2,1227.8,23,1217.8,17.3z M1209,115c-6.7,8.1-15.7,12.2-27.2,12.2c-11.6,0-20.6-4-27.3-12.1c-6.6-8-9.9-19.9-9.9-35.6
		c0-15.6,3.3-27.4,9.9-35.3c6.6-8,15.7-12,27.3-12c11.4,0,20.5,4,27.2,12c6.7,8,10,19.8,10,35.3S1215.7,106.9,1209,115z"/>
	<path class="st0" d="M1361.4,93.1c0,11-2.5,19.5-7.6,25.3c-5.1,5.8-12.3,8.8-21.8,8.8c-9.9,0-17.3-2.9-22.4-8.8
		c-5.1-5.8-7.6-14.3-7.6-25.3V10.3h-29.6v81.4c0,19.3,5,34,15.1,44c10.1,10,24.9,15,44.5,15c19.2,0,33.9-5,44.2-15.1
		c10.3-10.1,15.4-24.7,15.4-43.9V10.3h-30.2V93.1z"/>
	<rect x="1418.2" y="10.3" class="st0" width="30.4" height="138.6"/>
	<path class="st0" d="M1575.3,21.4c-8.4-7.4-20.3-11.1-35.9-11.1h-62.9V149h30.4V92.9h32.5c15.3,0,27.2-3.7,35.7-11.2
		c8.5-7.5,12.8-17.5,12.8-30.1C1587.8,38.9,1583.6,28.8,1575.3,21.4z M1553.4,65.1c-3.9,3.1-9.9,4.7-17.9,4.7h-28.6v-36h28.6
		c8.2,0,14.2,1.6,18,4.7c3.8,3.1,5.7,7.6,5.7,13.4C1559.2,57.5,1557.3,61.9,1553.4,65.1z"/>
	<path class="st0" d="M1730.5,41.9c-5.5-10.6-13.2-18.9-23.3-24.6c-10.1-5.8-22-8.7-35.9-8.7c-13.9,0-25.9,2.9-36,8.7
		c-10.1,5.8-17.9,14-23.5,24.6c-5.5,10.6-8.3,23.2-8.3,37.6c0,14.5,2.8,27.1,8.3,37.8c5.5,10.6,13.3,18.9,23.5,24.7
		c10.1,5.8,22.1,8.8,36,8.8c13.9,0,25.9-2.9,35.9-8.8c10.1-5.8,17.8-14.1,23.3-24.7c5.5-10.6,8.2-23.2,8.2-37.8
		C1738.7,65.1,1736,52.5,1730.5,41.9z M1698.5,115c-6.7,8.1-15.7,12.2-27.2,12.2c-11.6,0-20.6-4-27.3-12.1c-6.6-8-9.9-19.9-9.9-35.6
		c0-15.6,3.3-27.4,9.9-35.3c6.6-8,15.7-12,27.3-12c11.4,0,20.5,4,27.2,12c6.7,8,10,19.8,10,35.3S1705.2,106.9,1698.5,115z"/>
</g>
</svg>
