<?xml version="1.0" encoding="utf-8"?>
<!-- Generator: Adobe Illustrator 26.0.3, SVG Export Plug-In . SVG Version: 6.00 Build 0)  -->
<svg version="1.1" id="Layer_1" xmlns="http://www.w3.org/2000/svg" xmlns:xlink="http://www.w3.org/1999/xlink" x="0px" y="0px"
	 viewBox="0 0 1407.3 158" style="enable-background:new 0 0 1407.3 158;" xml:space="preserve">
<style type="text/css">
	.st0{fill:none;stroke:#FFFFFF;stroke-width:2;}
</style>
<g>
	<polygon class="st0" points="0,33.8 44,33.8 44,149.2 75.2,149.2 75.2,33.8 119.1,33.8 119.1,8.8 0,8.8 	"/>
	<path class="st0" d="M227.9,92.4c-2.6-2-5.5-3.2-8.6-3.8c6-1.9,11.2-4.7,15.6-8.5c8.7-7.6,13-17.6,13-30.1
		c0-13.2-4.2-23.3-12.6-30.5c-8.4-7.2-20.8-10.8-37.3-10.8h-62.5v140.4h30.4V92.6h19.9c4.1,0,7.7,0.7,10.8,2.1
		c3.2,1.4,5.5,4,6.9,7.8l17.9,46.8h32.5l-17-43.6C234.9,99.7,231.8,95.3,227.9,92.4z M193.5,69.1h-27.8V32.4h27.8
		c8.9,0,15.4,1.5,19.4,4.4c4,3,6,7.6,6,13.9c0,6.2-2,10.8-6.1,13.8C208.8,67.6,202.3,69.1,193.5,69.1z"/>
	<path class="st0" d="M321.5,8.8L257,149.2h31l13.5-31.2H367l13.4,31.2h30.6L346.4,8.8H321.5z M311.6,94.6l22.7-52.6l22.6,52.6
		H311.6z"/>
	<polygon class="st0" points="493.9,8.8 455.3,68.8 417,8.8 382.1,8.8 439.9,94.2 439.9,149.2 470.9,149.2 470.9,94.8 529,8.8 	"/>
	<polygon class="st0" points="532.8,149.2 629.6,149.2 629.6,125.4 563,125.4 563,89.8 625.5,89.8 625.5,65.8 563,65.8 563,32.6 
		629.6,32.6 629.6,8.8 532.8,8.8 	"/>
	<path class="st0" d="M717.4,31.7c6.6,0,12.9,1.1,18.8,3.3c6,2.2,12.1,5.6,18.4,10.4l9.7-22.1c-5.5-5.1-12.5-9.1-20.9-11.9
		C735,8.4,726.2,7,716.8,7c-14.3,0-26.8,3-37.3,8.9c-10.5,5.9-18.6,14.3-24.3,25.1c-5.7,10.8-8.5,23.4-8.5,37.9
		c0,14.6,2.8,27.3,8.5,38.2c5.7,10.9,13.7,19.2,24.3,25.2c10.5,5.9,22.9,8.9,37.3,8.9c9.3,0,18.2-1.4,26.6-4.2
		c8.4-2.8,15.4-6.8,20.9-11.9l-9.7-22.1c-6.3,4.7-12.5,8.2-18.4,10.4c-6,2.2-12.3,3.3-18.8,3.3c-12.5,0-22.2-4-29-12.1
		c-6.8-8.1-10.3-19.9-10.3-35.4c0-15.5,3.4-27.3,10.3-35.2C695.3,35.6,704.9,31.7,717.4,31.7z"/>
	<polygon class="st0" points="772.5,33.8 816.4,33.8 816.4,149.2 847.6,149.2 847.6,33.8 891.6,33.8 891.6,8.8 772.5,8.8 	"/>
	<path class="st0" d="M1001,15.8C990.8,9.9,978.7,7,964.6,7c-14.1,0-26.2,2.9-36.5,8.8c-10.3,5.9-18.2,14.2-23.8,25
		c-5.6,10.8-8.4,23.5-8.4,38.1c0,14.7,2.8,27.5,8.4,38.3c5.6,10.8,13.5,19.1,23.8,25.1c10.3,5.9,22.4,8.9,36.5,8.9
		c14.1,0,26.2-3,36.4-8.9c10.2-5.9,18-14.3,23.6-25.1c5.5-10.8,8.3-23.5,8.3-38.3c0-14.6-2.8-27.3-8.3-38.1S1011.2,21.6,1001,15.8z
		 M992.1,114.8c-6.8,8.2-15.9,12.3-27.5,12.3c-11.7,0-20.9-4.1-27.6-12.2c-6.7-8.2-10.1-20.2-10.1-36.1c0-15.8,3.4-27.7,10.1-35.8
		c6.7-8.1,15.9-12.1,27.6-12.1c11.6,0,20.7,4,27.5,12.1c6.8,8.1,10.2,20,10.2,35.8S998.9,106.6,992.1,114.8z"/>
	<path class="st0" d="M1149.3,92.4c-2.6-2-5.5-3.2-8.6-3.8c6-1.9,11.2-4.7,15.6-8.5c8.7-7.6,13-17.6,13-30.1
		c0-13.2-4.2-23.3-12.6-30.5c-8.4-7.2-20.8-10.8-37.3-10.8h-62.5v140.4h30.4V92.6h19.9c4.1,0,7.7,0.7,10.8,2.1
		c3.2,1.4,5.5,4,6.9,7.8l17.9,46.8h32.5l-17-43.6C1156.3,99.7,1153.2,95.3,1149.3,92.4z M1114.9,69.1h-27.8V32.4h27.8
		c8.9,0,15.4,1.5,19.4,4.4c4,3,6,7.6,6,13.9c0,6.2-2,10.8-6.1,13.8C1130.2,67.6,1123.7,69.1,1114.9,69.1z"/>
	<rect x="1196.6" y="8.8" class="st0" width="30.8" height="140.4"/>
	<path class="st0" d="M1362.7,149.2h30.6L1328.7,8.8h-24.9l-64.5,140.4h31l13.5-31.2h65.5L1362.7,149.2z M1293.9,94.6l22.7-52.6
		l22.6,52.6H1293.9z"/>
</g>
</svg>
