<svg xmlns="http://www.w3.org/2000/svg"  viewBox="0 0 28 24">
  <path id="Vector" d="M14,0c3.8,0,4.278.012,5.771.072a11.831,11.831,0,0,1,3.4.558,7.032,7.032,0,0,1,2.481,1.384A5.889,5.889,0,0,1,27.265,4.14a7.772,7.772,0,0,1,.651,2.914C27.982,8.333,28,8.74,28,12s-.014,3.667-.084,4.946a7.778,7.778,0,0,1-.651,2.914,5.859,5.859,0,0,1-1.614,2.126A7.084,7.084,0,0,1,23.17,23.37a11.864,11.864,0,0,1-3.4.558C18.278,23.984,17.8,24,14,24s-4.278-.012-5.771-.072a11.873,11.873,0,0,1-3.4-.558,7.048,7.048,0,0,1-2.481-1.384A5.884,5.884,0,0,1,.735,19.86a7.745,7.745,0,0,1-.651-2.914C.018,15.667,0,15.26,0,12S.014,8.333.084,7.054A7.745,7.745,0,0,1,.735,4.14,5.856,5.856,0,0,1,2.349,2.014,7.058,7.058,0,0,1,4.83.63a11.822,11.822,0,0,1,3.4-.558C9.722.016,10.2,0,14,0Zm0,6A7.633,7.633,0,0,0,9.05,7.757,5.6,5.6,0,0,0,7,12a5.6,5.6,0,0,0,2.05,4.243A7.633,7.633,0,0,0,14,18a7.633,7.633,0,0,0,4.95-1.757A5.6,5.6,0,0,0,21,12a5.6,5.6,0,0,0-2.05-4.243A7.633,7.633,0,0,0,14,6Zm9.1-.3a1.4,1.4,0,0,0-.513-1.061,1.962,1.962,0,0,0-2.475,0,1.354,1.354,0,0,0,0,2.121,1.962,1.962,0,0,0,2.475,0A1.4,1.4,0,0,0,23.1,5.7ZM14,8.4a4.58,4.58,0,0,1,2.97,1.054,3.249,3.249,0,0,1,0,5.091,4.71,4.71,0,0,1-5.94,0,3.249,3.249,0,0,1,0-5.091A4.58,4.58,0,0,1,14,8.4Z" fill="#fff"/>
</svg>
