<?xml version="1.0" encoding="utf-8"?>
<!-- Generator: Adobe Illustrator 26.0.3, SVG Export Plug-In . SVG Version: 6.00 Build 0)  -->
<svg version="1.1" id="Layer_1" xmlns="http://www.w3.org/2000/svg" xmlns:xlink="http://www.w3.org/1999/xlink" x="0px" y="0px"
	 viewBox="0 0 1093 158" style="enable-background:new 0 0 1093 158;" xml:space="preserve">
<style type="text/css">
	.st0{fill:none;stroke:#666666;}
</style>
<g>
	<path class="st0" d="M75.4,28.5c7.2,0,13.9,1.2,20.2,3.5c6.3,2.3,12.7,6.1,19.2,11.3l8.4-18.8c-5.6-5.5-12.6-9.6-21.1-12.5
		C93.7,9.1,84.6,7.7,75,7.7c-14.1,0-26.4,3-36.8,8.9c-10.4,5.9-18.4,14.3-23.9,25.2C8.8,52.6,6,65.5,6,80.3
		c0,14.9,2.8,27.9,8.3,38.8c5.5,10.9,13.5,19.4,23.9,25.3c10.4,5.9,22.7,8.9,36.8,8.9c9.6,0,18.6-1.4,27.1-4.3
		c8.5-2.9,15.5-7,21.1-12.5l-8.4-18.8c-6.5,5.2-12.9,9-19.2,11.3c-6.3,2.3-13,3.5-20.2,3.5c-13.7,0-24.4-4.5-31.9-13.5
		c-7.5-9-11.3-21.9-11.3-38.7c0-16.8,3.8-29.6,11.3-38.5C51.1,32.9,61.7,28.5,75.4,28.5z"/>
	<path class="st0" d="M243.8,16.5c-10.1-5.9-22.2-8.8-36.2-8.8c-13.9,0-25.9,2.9-36,8.8c-10.1,5.9-17.9,14.2-23.4,25.1
		c-5.5,10.9-8.2,23.8-8.2,38.9c0,14.9,2.7,27.9,8.2,38.8c5.5,10.9,13.3,19.3,23.4,25.2c10.1,5.9,22.1,8.8,36,8.8
		c14,0,26-2.9,36.1-8.8c10.1-5.9,17.9-14.3,23.4-25.2c5.5-10.9,8.3-23.9,8.3-39c0-14.9-2.7-27.8-8.2-38.7
		C261.8,30.7,254,22.3,243.8,16.5z M238.4,119.4c-7.5,9-17.7,13.5-30.8,13.5c-12.9,0-23.1-4.5-30.6-13.5c-7.5-9-11.2-22-11.2-39.1
		c0-17.1,3.7-30,11.2-38.9c7.5-8.9,17.7-13.3,30.6-13.3c13.1,0,23.3,4.4,30.8,13.3c7.5,8.9,11.2,21.8,11.2,38.9
		C249.6,97.3,245.9,110.4,238.4,119.4z"/>
	<polygon class="st0" points="397.6,108.9 321,9.3 301.8,9.3 301.8,151.7 326,151.7 326,52.2 402.4,151.7 421.8,151.7 421.8,9.3 
		397.6,9.3 	"/>
	<polygon class="st0" points="558.6,9.3 439.8,9.3 439.8,30.5 486.2,30.5 486.2,151.7 512.2,151.7 512.2,30.5 558.6,30.5 	"/>
	<path class="st0" d="M607.8,9.3l-64.4,142.4h26l14.4-33.4h69.5l14.3,33.4h25.6L628.8,9.3H607.8z M592.5,98.3l26.3-60.9l26.1,60.9
		H592.5z"/>
	<path class="st0" d="M769.2,28.5c7.2,0,13.9,1.2,20.2,3.5c6.3,2.3,12.7,6.1,19.2,11.3l8.4-18.8c-5.6-5.5-12.6-9.6-21.1-12.5
		c-8.5-2.9-17.5-4.3-27.1-4.3c-14.1,0-26.4,3-36.8,8.9c-10.4,5.9-18.4,14.3-23.9,25.2c-5.5,10.9-8.3,23.7-8.3,38.5
		c0,14.9,2.8,27.9,8.3,38.8c5.5,10.9,13.5,19.4,23.9,25.3c10.4,5.9,22.7,8.9,36.8,8.9c9.6,0,18.6-1.4,27.1-4.3
		c8.5-2.9,15.5-7,21.1-12.5l-8.4-18.8c-6.5,5.2-12.9,9-19.2,11.3c-6.3,2.3-13,3.5-20.2,3.5c-13.7,0-24.4-4.5-31.9-13.5
		c-7.5-9-11.3-21.9-11.3-38.7c0-16.8,3.8-29.6,11.3-38.5C744.9,32.9,755.5,28.5,769.2,28.5z"/>
	<polygon class="st0" points="826,30.5 872.4,30.5 872.4,151.7 898.4,151.7 898.4,30.5 944.8,30.5 944.8,9.3 826,9.3 	"/>
	<path class="st0" d="M1077,41.6c-5.5-10.9-13.3-19.2-23.4-25.1c-10.1-5.9-22.2-8.8-36.2-8.8c-13.9,0-25.9,2.9-36,8.8
		c-10.1,5.9-17.9,14.2-23.4,25.1c-5.5,10.9-8.2,23.8-8.2,38.9c0,14.9,2.7,27.9,8.2,38.8c5.5,10.9,13.3,19.3,23.4,25.2
		c10.1,5.9,22.1,8.8,36,8.8c14,0,26-2.9,36.1-8.8c10.1-5.9,17.9-14.3,23.4-25.2c5.5-10.9,8.3-23.9,8.3-39
		C1085.2,65.3,1082.5,52.4,1077,41.6z M1048.2,119.4c-7.5,9-17.7,13.5-30.8,13.5c-12.9,0-23.1-4.5-30.6-13.5
		c-7.5-9-11.2-22-11.2-39.1c0-17.1,3.7-30,11.2-38.9c7.5-8.9,17.7-13.3,30.6-13.3c13.1,0,23.3,4.4,30.8,13.3
		c7.5,8.9,11.2,21.8,11.2,38.9C1059.4,97.3,1055.7,110.4,1048.2,119.4z"/>
</g>
</svg>
