<?xml version="1.0" encoding="utf-8"?>
<!-- Generator: Adobe Illustrator 26.0.3, SVG Export Plug-In . SVG Version: 6.00 Build 0)  -->
<svg version="1.1" id="Layer_1" xmlns="http://www.w3.org/2000/svg" xmlns:xlink="http://www.w3.org/1999/xlink" x="0px" y="0px"
	 viewBox="0 0 1106.1 170" style="enable-background:new 0 0 1106.1 170;" xml:space="preserve">
<style type="text/css">
	.st0{fill:none;stroke:#FFFFFF;}
</style>
<g>
	<polygon class="st0" points="51.3,63.2 127.7,162.6 147.1,162.6 147.1,20.2 122.9,20.2 122.9,119.8 46.3,20.2 27.1,20.2 
		27.1,162.6 51.3,162.6 	"/>
	<path class="st0" d="M270.7,106.4c0,12.1-2.9,21.4-8.7,27.8c-5.8,6.4-14.2,9.6-25.1,9.6c-11.3,0-19.9-3.2-25.7-9.5
		s-8.7-15.6-8.7-27.9V20.2h-25.2V105c0,19.5,5,34.2,15.1,44.2s24.9,15,44.5,15c19.2,0,33.9-5,44.1-15.1
		c10.2-10.1,15.3-24.8,15.3-44.1V20.2h-25.6L270.7,106.4L270.7,106.4z"/>
	<polygon class="st0" points="421.3,142.4 351.3,142.4 351.3,100.4 417.3,100.4 417.3,80 351.3,80 351.3,40.4 421.3,40.4 
		421.3,20.2 326.1,20.2 326.1,162.6 421.3,162.6 	"/>
	<path class="st0" d="M534.1,95.5c-4.5-3.1-10-5.8-16.5-8.1c-6.5-2.3-13.8-4.3-22.1-6c-7.2-1.7-13.1-3.5-17.7-5.2s-8-3.9-10.2-6.4
		s-3.3-5.7-3.3-9.6c0-6.7,2.7-11.9,8-15.6c5.3-3.7,12.6-5.6,21.8-5.6c7.6,0,14.9,1.2,21.8,3.7s13.6,6.3,20,11.5l8.8-18.8
		c-3.9-3.6-8.5-6.6-13.8-9.1s-11.2-4.4-17.5-5.7s-12.8-2-19.5-2c-11.1,0-20.7,1.8-28.9,5.5c-8.2,3.7-14.6,8.8-19.1,15.3
		s-6.8,14-6.8,22.4c0,6.1,1.1,11.4,3.3,15.9c2.2,4.5,5.4,8.3,9.7,11.5c4.3,3.2,9.6,6,16,8.3s13.8,4.3,22.2,5.9
		c7.1,1.6,13,3.3,17.8,5s8.4,3.8,10.8,6.3c2.4,2.5,3.6,5.6,3.6,9.3c0,6.3-2.7,11.1-8.1,14.6c-5.4,3.5-13,5.2-22.9,5.2
		c-8.9,0-17.1-1.2-24.6-3.6c-7.5-2.4-14.8-6.3-22-11.6l-8.6,18.8c4.4,3.6,9.5,6.7,15.3,9.2s12,4.4,18.7,5.7s13.7,1.9,21,1.9
		c11.7,0,21.8-1.7,30.3-5.1c8.5-3.4,15-8.3,19.5-14.6s6.8-13.8,6.8-22.3c0-6-1.2-11.2-3.5-15.5C542.1,102.4,538.7,98.7,534.1,95.5z"
		/>
	<polygon class="st0" points="602.5,162.6 628.5,162.6 628.5,41.4 674.9,41.4 674.9,20.2 556.1,20.2 556.1,41.4 602.5,41.4 	"/>
	<path class="st0" d="M783.1,103.4c-2.6-2-5.5-3.3-8.7-3.9c6.1-1.8,11.3-4.6,15.7-8.4c8.7-7.4,13-17.4,13-29.9
		c0-13.2-4.2-23.3-12.6-30.4c-8.4-7.1-20.7-10.6-36.8-10.6h-61v142.4h25.4v-59.2h26c5.1,0,9.3,0.8,12.7,2.4s6,4.7,7.9,9.4l18,47.4
		h27.2L792.3,117C790.1,110.9,787,106.4,783.1,103.4z M717.9,83.4v-43h32.2c9.9,0,17.1,1.7,21.6,5.2s6.8,8.9,6.8,16.2
		c0,7.2-2.3,12.6-6.8,16.2s-11.7,5.4-21.6,5.4H717.9z"/>
	<path class="st0" d="M931.5,27.4c-10.1-5.9-22.2-8.8-36.2-8.8c-13.9,0-25.9,2.9-36,8.8s-17.9,14.2-23.4,25.1s-8.2,23.8-8.2,38.9
		c0,14.9,2.7,27.9,8.2,38.8s13.3,19.3,23.4,25.2c10.1,5.9,22.1,8.8,36,8.8c14,0,26-2.9,36.1-8.8c10.1-5.9,17.9-14.3,23.4-25.2
		s8.3-23.9,8.3-39c0-14.9-2.7-27.8-8.2-38.7C949.5,41.7,941.7,33.3,931.5,27.4z M926.1,130.3c-7.5,9-17.7,13.5-30.8,13.5
		c-12.9,0-23.1-4.5-30.6-13.5s-11.2-22-11.2-39.1s3.7-30,11.2-38.9S882.4,39,895.3,39c13.1,0,23.3,4.4,30.8,13.3
		s11.2,21.8,11.2,38.9S933.6,121.3,926.1,130.3z"/>
	<path class="st0" d="M1090.8,106.7c-2.3-4.3-5.8-8.1-10.3-11.2s-10-5.8-16.5-8.1c-6.5-2.3-13.8-4.3-22.1-6
		c-7.2-1.7-13.1-3.5-17.7-5.2s-8-3.9-10.2-6.4s-3.3-5.7-3.3-9.6c0-6.7,2.7-11.9,8-15.6c5.3-3.7,12.6-5.6,21.8-5.6
		c7.6,0,14.9,1.2,21.8,3.7s13.6,6.3,20,11.5l8.8-18.8c-3.9-3.6-8.5-6.6-13.8-9.1s-11.2-4.4-17.5-5.7s-12.8-2-19.5-2
		c-11.1,0-20.7,1.8-28.9,5.5s-14.6,8.8-19.1,15.3s-6.8,14-6.8,22.4c0,6.1,1.1,11.4,3.3,15.9s5.4,8.3,9.7,11.5s9.6,6,16,8.3
		s13.8,4.3,22.2,5.9c7.1,1.6,13,3.3,17.8,5s8.4,3.8,10.8,6.3s3.6,5.6,3.6,9.3c0,6.3-2.7,11.1-8.1,14.6s-13,5.2-22.9,5.2
		c-8.9,0-17.1-1.2-24.6-3.6c-7.5-2.4-14.8-6.3-22-11.6l-8.6,18.8c4.4,3.6,9.5,6.7,15.3,9.2s12,4.4,18.7,5.7s13.7,1.9,21,1.9
		c11.7,0,21.8-1.7,30.3-5.1c8.5-3.4,15-8.3,19.5-14.6s6.8-13.8,6.8-22.3C1094.3,116.2,1093.2,111.1,1090.8,106.7z"/>
</g>
</svg>
