<?xml version="1.0" encoding="utf-8"?>
<!-- Generator: Adobe Illustrator 26.0.3, SVG Export Plug-In . SVG Version: 6.00 Build 0)  -->
<svg version="1.1" id="Layer_1" xmlns="http://www.w3.org/2000/svg" xmlns:xlink="http://www.w3.org/1999/xlink" x="0px" y="0px"
	 viewBox="0 0 1106.1 377.1" style="enable-background:new 0 0 1106.1 377.1;" xml:space="preserve">
<style type="text/css">
	.st0{fill:none;stroke:#FFFFFF;}
</style>
<g>
	<polygon class="st0" points="51.3,63.2 127.7,162.6 147.1,162.6 147.1,20.2 122.9,20.2 122.9,119.8 46.3,20.2 27.1,20.2 
		27.1,162.6 51.3,162.6 	"/>
	<path class="st0" d="M270.7,106.4c0,12.1-2.9,21.4-8.7,27.8c-5.8,6.4-14.2,9.6-25.1,9.6c-11.3,0-19.9-3.2-25.7-9.5
		c-5.8-6.3-8.7-15.6-8.7-27.9V20.2h-25.2V105c0,19.5,5,34.2,15.1,44.2c10.1,10,24.9,15,44.5,15c19.2,0,33.9-5,44.1-15.1
		c10.2-10.1,15.3-24.8,15.3-44.1V20.2h-25.6V106.4z"/>
	<polygon class="st0" points="421.3,142.4 351.3,142.4 351.3,100.4 417.3,100.4 417.3,80 351.3,80 351.3,40.4 421.3,40.4 
		421.3,20.2 326.1,20.2 326.1,162.6 421.3,162.6 	"/>
	<path class="st0" d="M534.1,95.5c-4.5-3.1-10-5.8-16.5-8.1c-6.5-2.3-13.8-4.3-22.1-6c-7.2-1.7-13.1-3.5-17.7-5.2
		c-4.6-1.7-8-3.9-10.2-6.4c-2.2-2.5-3.3-5.7-3.3-9.6c0-6.7,2.7-11.9,8-15.6c5.3-3.7,12.6-5.6,21.8-5.6c7.6,0,14.9,1.2,21.8,3.7
		c6.9,2.5,13.6,6.3,20,11.5l8.8-18.8c-3.9-3.6-8.5-6.6-13.8-9.1c-5.3-2.5-11.2-4.4-17.5-5.7c-6.3-1.3-12.8-2-19.5-2
		c-11.1,0-20.7,1.8-28.9,5.5c-8.2,3.7-14.6,8.8-19.1,15.3c-4.5,6.5-6.8,14-6.8,22.4c0,6.1,1.1,11.4,3.3,15.9
		c2.2,4.5,5.4,8.3,9.7,11.5c4.3,3.2,9.6,6,16,8.3c6.4,2.3,13.8,4.3,22.2,5.9c7.1,1.6,13,3.3,17.8,5c4.8,1.7,8.4,3.8,10.8,6.3
		c2.4,2.5,3.6,5.6,3.6,9.3c0,6.3-2.7,11.1-8.1,14.6c-5.4,3.5-13,5.2-22.9,5.2c-8.9,0-17.1-1.2-24.6-3.6c-7.5-2.4-14.8-6.3-22-11.6
		l-8.6,18.8c4.4,3.6,9.5,6.7,15.3,9.2c5.8,2.5,12,4.4,18.7,5.7c6.7,1.3,13.7,1.9,21,1.9c11.7,0,21.8-1.7,30.3-5.1
		c8.5-3.4,15-8.3,19.5-14.6c4.5-6.3,6.8-13.8,6.8-22.3c0-6-1.2-11.2-3.5-15.5C542.1,102.4,538.7,98.7,534.1,95.5z"/>
	<polygon class="st0" points="602.5,162.6 628.5,162.6 628.5,41.4 674.9,41.4 674.9,20.2 556.1,20.2 556.1,41.4 602.5,41.4 	"/>
	<path class="st0" d="M783.1,103.4c-2.6-2-5.5-3.3-8.7-3.9c6.1-1.8,11.3-4.6,15.7-8.4c8.7-7.4,13-17.4,13-29.9
		c0-13.2-4.2-23.3-12.6-30.4c-8.4-7.1-20.7-10.6-36.8-10.6h-61v142.4h25.4v-59.2h26c5.1,0,9.3,0.8,12.7,2.4c3.4,1.6,6,4.7,7.9,9.4
		l18,47.4h27.2L792.3,117C790.1,110.9,787,106.4,783.1,103.4z M717.9,83.4v-43h32.2c9.9,0,17.1,1.7,21.6,5.2
		c4.5,3.5,6.8,8.9,6.8,16.2c0,7.2-2.3,12.6-6.8,16.2c-4.5,3.6-11.7,5.4-21.6,5.4H717.9z"/>
	<path class="st0" d="M931.5,27.4c-10.1-5.9-22.2-8.8-36.2-8.8c-13.9,0-25.9,2.9-36,8.8c-10.1,5.9-17.9,14.2-23.4,25.1
		c-5.5,10.9-8.2,23.8-8.2,38.9c0,14.9,2.7,27.9,8.2,38.8c5.5,10.9,13.3,19.3,23.4,25.2c10.1,5.9,22.1,8.8,36,8.8
		c14,0,26-2.9,36.1-8.8c10.1-5.9,17.9-14.3,23.4-25.2c5.5-10.9,8.3-23.9,8.3-39c0-14.9-2.7-27.8-8.2-38.7
		C949.5,41.7,941.7,33.3,931.5,27.4z M926.1,130.3c-7.5,9-17.7,13.5-30.8,13.5c-12.9,0-23.1-4.5-30.6-13.5c-7.5-9-11.2-22-11.2-39.1
		c0-17.1,3.7-30,11.2-38.9c7.5-8.9,17.7-13.3,30.6-13.3c13.1,0,23.3,4.4,30.8,13.3c7.5,8.9,11.2,21.8,11.2,38.9
		C937.3,108.3,933.6,121.3,926.1,130.3z"/>
	<path class="st0" d="M1090.8,106.7c-2.3-4.3-5.8-8.1-10.3-11.2c-4.5-3.1-10-5.8-16.5-8.1c-6.5-2.3-13.8-4.3-22.1-6
		c-7.2-1.7-13.1-3.5-17.7-5.2c-4.6-1.7-8-3.9-10.2-6.4c-2.2-2.5-3.3-5.7-3.3-9.6c0-6.7,2.7-11.9,8-15.6c5.3-3.7,12.6-5.6,21.8-5.6
		c7.6,0,14.9,1.2,21.8,3.7c6.9,2.5,13.6,6.3,20,11.5l8.8-18.8c-3.9-3.6-8.5-6.6-13.8-9.1c-5.3-2.5-11.2-4.4-17.5-5.7
		c-6.3-1.3-12.8-2-19.5-2c-11.1,0-20.7,1.8-28.9,5.5c-8.2,3.7-14.6,8.8-19.1,15.3c-4.5,6.5-6.8,14-6.8,22.4c0,6.1,1.1,11.4,3.3,15.9
		c2.2,4.5,5.4,8.3,9.7,11.5c4.3,3.2,9.6,6,16,8.3c6.4,2.3,13.8,4.3,22.2,5.9c7.1,1.6,13,3.3,17.8,5c4.8,1.7,8.4,3.8,10.8,6.3
		c2.4,2.5,3.6,5.6,3.6,9.3c0,6.3-2.7,11.1-8.1,14.6c-5.4,3.5-13,5.2-22.9,5.2c-8.9,0-17.1-1.2-24.6-3.6c-7.5-2.4-14.8-6.3-22-11.6
		l-8.6,18.8c4.4,3.6,9.5,6.7,15.3,9.2c5.8,2.5,12,4.4,18.7,5.7c6.7,1.3,13.7,1.9,21,1.9c11.7,0,21.8-1.7,30.3-5.1
		c8.5-3.4,15-8.3,19.5-14.6c4.5-6.3,6.8-13.8,6.8-22.3C1094.3,116.2,1093.2,111.1,1090.8,106.7z"/>
	<polygon class="st0" points="131.7,220.2 84.1,330.3 36.9,220.2 9.9,220.2 73.3,362.6 94.5,362.6 157.7,220.2 	"/>
	<path class="st0" d="M206.9,220.2l-64.4,142.4h26l14.4-33.4h69.5l14.3,33.4h25.6l-64.4-142.4H206.9z M191.6,309.2l26.3-60.9
		l26.1,60.9H191.6z"/>
	<polygon class="st0" points="333.5,220.2 307.7,220.2 307.7,362.6 399.9,362.6 399.9,341.4 333.5,341.4 	"/>
	<path class="st0" d="M511.3,227.4c-10.1-5.9-22.2-8.8-36.2-8.8c-13.9,0-25.9,2.9-36,8.8c-10.1,5.9-17.9,14.2-23.4,25.1
		c-5.5,10.9-8.2,23.8-8.2,38.9c0,14.9,2.7,27.9,8.2,38.8c5.5,10.9,13.3,19.3,23.4,25.2c10.1,5.9,22.1,8.8,36,8.8
		c14,0,26-2.9,36.1-8.8c10.1-5.9,17.9-14.3,23.4-25.2c5.5-10.9,8.3-23.9,8.3-39c0-14.9-2.7-27.8-8.2-38.7
		C529.3,241.7,521.5,233.3,511.3,227.4z M505.9,330.3c-7.5,9-17.7,13.5-30.8,13.5c-12.9,0-23.1-4.5-30.6-13.5
		c-7.5-9-11.2-22-11.2-39.1c0-17.1,3.7-30,11.2-38.9c7.5-8.9,17.7-13.3,30.6-13.3c13.1,0,23.3,4.4,30.8,13.3
		c7.5,8.9,11.2,21.8,11.2,38.9C517.1,308.3,513.4,321.3,505.9,330.3z"/>
	<path class="st0" d="M659.7,303.4c-2.6-2-5.5-3.3-8.7-3.9c6.1-1.8,11.3-4.6,15.7-8.4c8.7-7.4,13-17.4,13-29.9
		c0-13.2-4.2-23.3-12.6-30.4c-8.4-7.1-20.7-10.6-36.8-10.6h-61v142.4h25.4v-59.2h26c5.1,0,9.3,0.8,12.7,2.4c3.4,1.6,6,4.7,7.9,9.4
		l18,47.4h27.2L668.9,317C666.7,310.9,663.6,306.4,659.7,303.4z M594.5,283.4v-43h32.2c9.9,0,17.1,1.7,21.6,5.2
		c4.5,3.5,6.8,8.9,6.8,16.2c0,7.2-2.3,12.6-6.8,16.2c-4.5,3.6-11.7,5.4-21.6,5.4H594.5z"/>
	<polygon class="st0" points="709.7,362.6 804.9,362.6 804.9,342.4 734.9,342.4 734.9,300.4 800.9,300.4 800.9,280 734.9,280 
		734.9,240.4 804.9,240.4 804.9,220.2 709.7,220.2 	"/>
	<path class="st0" d="M917.7,295.5c-4.5-3.1-10-5.8-16.5-8.1c-6.5-2.3-13.8-4.3-22.1-6c-7.2-1.7-13.1-3.5-17.7-5.2
		c-4.6-1.7-8-3.9-10.2-6.4c-2.2-2.5-3.3-5.7-3.3-9.6c0-6.7,2.7-11.9,8-15.6c5.3-3.7,12.6-5.6,21.8-5.6c7.6,0,14.9,1.2,21.8,3.7
		c6.9,2.5,13.6,6.3,20,11.5l8.8-18.8c-3.9-3.6-8.5-6.6-13.8-9.1c-5.3-2.5-11.2-4.4-17.5-5.7c-6.3-1.3-12.8-2-19.5-2
		c-11.1,0-20.7,1.8-28.9,5.5c-8.2,3.7-14.6,8.8-19.1,15.3c-4.5,6.5-6.8,14-6.8,22.4c0,6.1,1.1,11.4,3.3,15.9
		c2.2,4.5,5.4,8.3,9.7,11.5c4.3,3.2,9.6,6,16,8.3c6.4,2.3,13.8,4.3,22.2,5.9c7.1,1.6,13,3.3,17.8,5c4.8,1.7,8.4,3.8,10.8,6.3
		c2.4,2.5,3.6,5.6,3.6,9.3c0,6.3-2.7,11.1-8.1,14.6c-5.4,3.5-13,5.2-22.9,5.2c-8.9,0-17.1-1.2-24.6-3.6c-7.5-2.4-14.8-6.3-22-11.6
		l-8.6,18.8c4.4,3.6,9.5,6.7,15.3,9.2c5.8,2.5,12,4.4,18.7,5.7c6.7,1.3,13.7,1.9,21,1.9c11.7,0,21.8-1.7,30.3-5.1
		c8.5-3.4,15-8.3,19.5-14.6c4.5-6.3,6.8-13.8,6.8-22.3c0-6-1.2-11.2-3.5-15.5C925.7,302.4,922.3,298.7,917.7,295.5z"/>
</g>
</svg>
