<?xml version="1.0" encoding="utf-8"?>
<!-- Generator: Adobe Illustrator 26.0.3, SVG Export Plug-In . SVG Version: 6.00 Build 0)  -->
<svg version="1.1" id="Layer_1" xmlns="http://www.w3.org/2000/svg" xmlns:xlink="http://www.w3.org/1999/xlink" x="0px" y="0px"
	 viewBox="0 0 888.1 403.2" style="enable-background:new 0 0 888.1 403.2;" xml:space="preserve">
<style type="text/css">
	.st0{fill:none;stroke:#F9F9F7;}
</style>
<g>
	<path class="st0" d="M143,160.4c5.5-10.9,8.3-23.9,8.3-39c0-14.9-2.7-27.8-8.2-38.7s-13.3-19.2-23.4-25.1s-22.2-8.8-36.2-8.8
		c-13.9,0-25.9,2.9-36,8.8S29.6,71.8,24.1,82.7s-8.2,23.8-8.2,38.9c0,14.9,2.7,27.9,8.2,38.8s13.3,19.3,23.4,25.2s22.1,8.8,36,8.8
		c2,0,3.9-0.1,5.8-0.2c4.1,6.8,8.9,13.5,14.4,19.9c5.7,6.6,11.9,12.2,18.6,16.9l17.4-13.8c-5.2-4.4-10.3-9.2-15.3-14.5
		c-4-4.2-7.5-9-10.4-14.2c1.9-0.9,3.8-1.8,5.6-2.9C129.6,179.7,137.4,171.3,143,160.4z M83.5,174c-12.9,0-23.1-4.5-30.6-13.5
		s-11.2-22-11.2-39.1s3.7-30,11.2-38.9s17.7-13.3,30.6-13.3c13.1,0,23.3,4.4,30.8,13.3s11.2,21.8,11.2,38.9s-3.7,30.1-11.2,39.1
		S96.5,174,83.5,174z"/>
	<path class="st0" d="M270.3,136.6c0,12.1-2.9,21.4-8.7,27.8c-5.8,6.4-14.2,9.6-25.1,9.6c-11.3,0-19.9-3.2-25.7-9.5
		s-8.7-15.6-8.7-27.9V50.4h-25.2v84.8c0,19.5,5,34.2,15.1,44.2s24.9,15,44.5,15c19.2,0,33.9-5,44.1-15.1
		c10.2-10.1,15.3-24.8,15.3-44.1V50.4h-25.6L270.3,136.6L270.3,136.6z"/>
	<rect x="325.7" y="50.4" class="st0" width="25.8" height="142.4"/>
	<polygon class="st0" points="470.1,7.2 445.7,7.2 425.3,38.2 441.1,38.2 	"/>
	<polygon class="st0" points="477.7,172.6 407.7,172.6 407.7,130.6 473.7,130.6 473.7,110.2 407.7,110.2 407.7,70.6 477.7,70.6 
		477.7,50.4 382.5,50.4 382.5,192.8 477.7,192.8 	"/>
	<polygon class="st0" points="597.3,150 520.7,50.4 501.5,50.4 501.5,192.8 525.7,192.8 525.7,93.4 602.1,192.8 621.5,192.8 
		621.5,50.4 597.3,50.4 	"/>
	<polygon class="st0" points="652.5,192.8 747.7,192.8 747.7,172.6 677.7,172.6 677.7,130.6 743.7,130.6 743.7,110.2 677.7,110.2 
		677.7,70.6 747.7,70.6 747.7,50.4 652.5,50.4 	"/>
	<path class="st0" d="M870.8,136.9c-2.3-4.3-5.8-8.1-10.3-11.2c-4.5-3.1-10-5.8-16.5-8.1c-6.5-2.3-13.8-4.3-22.1-6
		c-7.2-1.7-13.1-3.5-17.7-5.2c-4.6-1.7-8-3.9-10.2-6.4s-3.3-5.7-3.3-9.6c0-6.7,2.7-11.9,8-15.6s12.6-5.6,21.8-5.6
		c7.6,0,14.9,1.2,21.8,3.7c6.9,2.5,13.6,6.3,20,11.5l8.8-18.8c-3.9-3.6-8.5-6.6-13.8-9.1s-11.2-4.4-17.5-5.7s-12.8-2-19.5-2
		c-11.1,0-20.7,1.8-28.9,5.5s-14.6,8.8-19.1,15.3s-6.8,14-6.8,22.4c0,6.1,1.1,11.4,3.3,15.9s5.4,8.3,9.7,11.5s9.6,6,16,8.3
		s13.8,4.3,22.2,5.9c7.1,1.6,13,3.3,17.8,5s8.4,3.8,10.8,6.3c2.4,2.5,3.6,5.6,3.6,9.3c0,6.3-2.7,11.1-8.1,14.6
		c-5.4,3.5-13,5.2-22.9,5.2c-8.9,0-17.1-1.2-24.6-3.6c-7.5-2.4-14.8-6.3-22-11.6l-8.6,18.8c4.4,3.6,9.5,6.7,15.3,9.2
		s12,4.4,18.7,5.7s13.7,1.9,21,1.9c11.7,0,21.8-1.7,30.3-5.1c8.5-3.4,15-8.3,19.5-14.6s6.8-13.8,6.8-22.3
		C874.3,146.4,873.1,141.2,870.8,136.9z"/>
	<path class="st0" d="M111.3,325.7c-4.5-3.1-10-5.8-16.5-8.1c-6.5-2.3-13.8-4.3-22.1-6c-7.2-1.7-13.1-3.5-17.7-5.2s-8-3.9-10.2-6.4
		s-3.3-5.7-3.3-9.6c0-6.7,2.7-11.9,8-15.6s12.6-5.6,21.8-5.6c7.6,0,14.9,1.2,21.8,3.7s13.6,6.3,20,11.5l8.8-18.8
		c-3.9-3.6-8.5-6.6-13.8-9.1s-11.2-4.4-17.5-5.7s-12.8-2-19.5-2c-11.1,0-20.7,1.8-28.9,5.5s-14.6,8.8-19.1,15.3s-6.8,14-6.8,22.4
		c0,6.1,1.1,11.4,3.3,15.9s5.4,8.3,9.7,11.5s9.6,6,16,8.3s13.8,4.3,22.2,5.9c7.1,1.6,13,3.3,17.8,5s8.4,3.8,10.8,6.3
		s3.6,5.6,3.6,9.3c0,6.3-2.7,11.1-8.1,14.6s-13,5.2-22.9,5.2c-8.9,0-17.1-1.2-24.6-3.6s-14.8-6.3-22-11.6l-8.6,18.8
		c4.4,3.6,9.5,6.7,15.3,9.2s12,4.4,18.7,5.7c6.7,1.3,13.7,1.9,21,1.9c11.7,0,21.8-1.7,30.3-5.1s15-8.3,19.5-14.6
		c4.5-6.3,6.8-13.8,6.8-22.3c0-6-1.2-11.2-3.5-15.5C119.2,332.6,115.8,328.8,111.3,325.7z"/>
	<path class="st0" d="M248.7,257.6c-10.1-5.9-22.2-8.8-36.2-8.8c-13.9,0-25.9,2.9-36,8.8c-10.1,5.9-17.9,14.2-23.4,25.1
		s-8.2,23.8-8.2,38.9c0,14.9,2.7,27.9,8.2,38.8s13.3,19.3,23.4,25.2c10.1,5.9,22.1,8.8,36,8.8c14,0,26-2.9,36.1-8.8
		s17.9-14.3,23.4-25.2c5.5-10.9,8.3-23.9,8.3-39c0-14.9-2.7-27.8-8.2-38.7C266.6,271.8,258.8,263.5,248.7,257.6z M243.3,360.5
		c-7.5,9-17.7,13.5-30.8,13.5c-12.9,0-23.1-4.5-30.6-13.5s-11.2-22-11.2-39.1s3.7-30,11.2-38.9s17.7-13.3,30.6-13.3
		c13.1,0,23.3,4.4,30.8,13.3s11.2,21.8,11.2,38.9S250.7,351.5,243.3,360.5z"/>
	<polygon class="st0" points="376.6,361.8 327.7,250.4 307.1,250.4 307.1,392.8 329.9,392.8 329.7,305.5 367.9,392.8 384.9,392.8 
		422.5,304.8 422.7,392.8 445.7,392.8 445.7,250.4 425.1,250.4 	"/>
	<path class="st0" d="M576.1,257.6c-10.1-5.9-22.2-8.8-36.2-8.8c-13.9,0-25.9,2.9-36,8.8c-10.1,5.9-17.9,14.2-23.4,25.1
		s-8.2,23.8-8.2,38.9c0,14.9,2.7,27.9,8.2,38.8s13.3,19.3,23.4,25.2c10.1,5.9,22.1,8.8,36,8.8c14,0,26-2.9,36.1-8.8
		s17.9-14.3,23.4-25.2c5.5-10.9,8.3-23.9,8.3-39c0-14.9-2.7-27.8-8.2-38.7C594,271.8,586.2,263.5,576.1,257.6z M570.7,360.5
		c-7.5,9-17.7,13.5-30.8,13.5c-12.9,0-23.1-4.5-30.6-13.5c-7.5-9-11.2-22-11.2-39.1s3.7-30,11.2-38.9c7.5-8.9,17.7-13.3,30.6-13.3
		c13.1,0,23.3,4.4,30.8,13.3s11.2,21.8,11.2,38.9S578.1,351.5,570.7,360.5z"/>
	<path class="st0" d="M725.1,325.7c-4.5-3.1-10-5.8-16.5-8.1c-6.5-2.3-13.8-4.3-22.1-6c-7.2-1.7-13.1-3.5-17.7-5.2
		c-4.6-1.7-8-3.9-10.2-6.4s-3.3-5.7-3.3-9.6c0-6.7,2.7-11.9,8-15.6s12.6-5.6,21.8-5.6c7.6,0,14.9,1.2,21.8,3.7
		c6.9,2.5,13.6,6.3,20,11.5l8.8-18.8c-3.9-3.6-8.5-6.6-13.8-9.1s-11.2-4.4-17.5-5.7s-12.8-2-19.5-2c-11.1,0-20.7,1.8-28.9,5.5
		s-14.6,8.8-19.1,15.3s-6.8,14-6.8,22.4c0,6.1,1.1,11.4,3.3,15.9s5.4,8.3,9.7,11.5s9.6,6,16,8.3s13.8,4.3,22.2,5.9
		c7.1,1.6,13,3.3,17.8,5s8.4,3.8,10.8,6.3c2.4,2.5,3.6,5.6,3.6,9.3c0,6.3-2.7,11.1-8.1,14.6c-5.4,3.5-13,5.2-22.9,5.2
		c-8.9,0-17.1-1.2-24.6-3.6s-14.8-6.3-22-11.6l-8.6,18.8c4.4,3.6,9.5,6.7,15.3,9.2s12,4.4,18.7,5.7c6.7,1.3,13.7,1.9,21,1.9
		c11.7,0,21.8-1.7,30.3-5.1s15-8.3,19.5-14.6c4.5-6.3,6.8-13.8,6.8-22.3c0-6-1.2-11.2-3.5-15.5C733,332.6,729.6,328.8,725.1,325.7z"
		/>
</g>
</svg>
